<?xml version="1.0" encoding="UTF-8"?>
<!DOCTYPE svg PUBLIC "-//W3C//DTD SVG 1.1//EN" "http://www.w3.org/Graphics/SVG/1.1/DTD/svg11.dtd">
<svg version="1.1" xmlns="http://www.w3.org/2000/svg" xmlns:xlink="http://www.w3.org/1999/xlink" x="0" y="0" width="1920" height="1080" viewBox="0, 0, 1920, 1080">
  <defs>
    <linearGradient id="Gradient_1" gradientUnits="userSpaceOnUse" x1="1118" y1="1056.362" x2="1810" y2="-437.638" gradientTransform="matrix(1, 0, 0, 1, 0, 27.638)">
      <stop offset="0" stop-color="#323232"/>
      <stop offset="1" stop-color="#D2D2D2"/>
    </linearGradient>
    <radialGradient id="Gradient_2" gradientUnits="userSpaceOnUse" cx="1409.637" cy="141.69" r="355.27" gradientTransform="matrix(1.081, 0, 0, 0.011, -145.633, 102.591)">
      <stop offset="0" stop-color="#FFFFFF"/>
      <stop offset="1" stop-color="#FFFFFF" stop-opacity="0"/>
    </radialGradient>
    <radialGradient id="Gradient_3" gradientUnits="userSpaceOnUse" cx="1082.204" cy="371.241" r="3.161" gradientTransform="matrix(0.862, 0, 0, 58.87, 102.519, -21561.1)">
      <stop offset="0" stop-color="#FFFFFF"/>
      <stop offset="1" stop-color="#FFFFFF" stop-opacity="0"/>
    </radialGradient>
    <radialGradient id="Gradient_4" gradientUnits="userSpaceOnUse" cx="1409.637" cy="-4360.179" r="355.27" gradientTransform="matrix(1.081, 0, 0, 0.011, -145.633, 540.591)">
      <stop offset="0" stop-color="#FFFFFF"/>
      <stop offset="1" stop-color="#FFFFFF" stop-opacity="0"/>
    </radialGradient>
    <radialGradient id="Gradient_5" gradientUnits="userSpaceOnUse" cx="997.094" cy="371.241" r="3.161" gradientTransform="matrix(1, 0, 0, 58.87, 724.388, -21558.246)">
      <stop offset="0" stop-color="#FFFFFF"/>
      <stop offset="1" stop-color="#FFFFFF" stop-opacity="0"/>
    </radialGradient>
  </defs>
  <g id="Background">
    <path d="M1919.754,-0 C1919.89,-0 1920,0.11 1920,0.246 L1920,1079.754 C1920,1079.89 1919.89,1080 1919.754,1080 L0.246,1080 C0.11,1080 -0,1079.89 -0,1079.754 L-0,0.246 C-0,0.11 0.11,-0 0.246,-0 L1919.754,-0 z M1717.774,107.929 L1038,107.929 L1038,489.397 L1717.774,489.397 L1717.774,107.929 z" fill="url(#Gradient_1)"/>
    <path d="M1038.116,100.266 L1717.884,100.266 C1717.948,100.266 1718,100.324 1718,100.397 L1718,107.869 C1718,107.941 1717.948,108 1717.884,108 L1038.116,108 C1038.052,108 1038,107.941 1038,107.869 L1038,100.397 C1038,100.324 1038.052,100.266 1038.116,100.266 z" fill="url(#Gradient_2)" id="rect4498"/>
    <path d="M1032.226,107.929 L1037.774,107.929 C1037.899,107.929 1038,108.019 1038,108.129 L1038,479.729 C1038,479.839 1037.899,479.929 1037.774,479.929 L1032.226,479.929 C1032.101,479.929 1032,479.839 1032,479.729 L1032,108.129 C1032,108.019 1032.101,107.929 1032.226,107.929 z" fill="url(#Gradient_3)" id="rect4462"/>
    <path d="M1038.116,489.266 L1717.884,489.266 C1717.948,489.266 1718,489.324 1718,489.397 L1718,496.869 C1718,496.941 1717.948,497 1717.884,497 L1038.116,497 C1038.052,497 1038,496.941 1038,496.869 L1038,489.397 C1038,489.324 1038.052,489.266 1038.116,489.266 z" fill="url(#Gradient_4)" id="rect4498-7"/>
    <path d="M1718.226,110.782 L1724.737,110.782 C1724.862,110.782 1724.963,110.872 1724.963,110.982 L1724.963,482.582 C1724.963,482.692 1724.862,482.782 1724.737,482.782 L1718.226,482.782 C1718.101,482.782 1718,482.692 1718,482.582 L1718,110.982 C1718,110.872 1718.101,110.782 1718.226,110.782 z" fill="url(#Gradient_5)" id="rect4462-2"/>
  </g>
</svg>
