<?xml version="1.0" encoding="UTF-8"?>
<!DOCTYPE svg PUBLIC "-//W3C//DTD SVG 1.1//EN" "http://www.w3.org/Graphics/SVG/1.1/DTD/svg11.dtd">
<svg version="1.1" xmlns="http://www.w3.org/2000/svg" xmlns:xlink="http://www.w3.org/1999/xlink" x="0" y="0" width="1280" height="130" viewBox="0, 0, 1280, 130">
  <defs>
    <linearGradient id="Gradient_1" gradientUnits="userSpaceOnUse" x1="972.661" y1="918.585" x2="978.345" y2="1005.908" gradientTransform="matrix(1.002, 0, 0, 1.019, -325.669, -895.063)">
      <stop offset="0" stop-color="#0093FF"/>
      <stop offset="1" stop-color="#000542" stop-opacity="0.959"/>
    </linearGradient>
    <radialGradient id="Gradient_2" gradientUnits="userSpaceOnUse" cx="965" cy="876" r="640" gradientTransform="matrix(1, 0, 0, 0.002, -325, -0.369)">
      <stop offset="0" stop-color="#FFFFFF"/>
      <stop offset="1" stop-color="#FFFFFF" stop-opacity="0"/>
    </radialGradient>
    <radialGradient id="Gradient_3" gradientUnits="userSpaceOnUse" cx="965" cy="875.997" r="640" gradientTransform="matrix(1, 0, 0, 0.002, -325, 127.631)">
      <stop offset="0" stop-color="#FFFFFF"/>
      <stop offset="1" stop-color="#FFFFFF" stop-opacity="0"/>
    </radialGradient>
    <radialGradient id="Gradient_4" gradientUnits="userSpaceOnUse" cx="326" cy="940" r="1" gradientTransform="matrix(1, 0, 0, 65, -325, -61035.016)">
      <stop offset="0" stop-color="#FFFFFF"/>
      <stop offset="1" stop-color="#FFFFFF" stop-opacity="0"/>
    </radialGradient>
    <radialGradient id="Gradient_5" gradientUnits="userSpaceOnUse" cx="326" cy="940" r="1" gradientTransform="matrix(1, 0, 0, 65, 953, -61035.016)">
      <stop offset="0" stop-color="#FFFFFF"/>
      <stop offset="1" stop-color="#FFFFFF" stop-opacity="0"/>
    </radialGradient>
  </defs>
  <g id="EPG">
    <path d="M0.357,0 L1279.643,0 C1279.84,0 1280,0.16 1280,0.357 L1280,129.643 C1280,129.84 1279.84,130 1279.643,130 L0.357,130 C0.16,130 0,129.84 0,129.643 L0,0.357 C0,0.16 0.16,0 0.357,0 z" fill="#000000" id="rect4736" opacity="0.5"/>
    <path d="M0.357,0 L1279.643,0 C1279.84,0 1280,0.16 1280,0.357 L1280,129.643 C1280,129.84 1279.84,130 1279.643,130 L0.357,130 C0.16,130 0,129.84 0,129.643 L0,0.357 C0,0.16 0.16,0 0.357,0 z" fill="url(#Gradient_1)" id="rect4749" opacity="0.496"/>
    <path d="M0.307,0 L1279.693,0 C1279.863,0 1280,0.137 1280,0.307 L1280,1.693 C1280,1.863 1279.863,2 1279.693,2 L0.307,2 C0.137,2 0,1.863 0,1.693 L0,0.307 C0,0.137 0.137,0 0.307,0 z" fill="url(#Gradient_2)" id="rect4768" opacity="0.5"/>
    <path d="M0.307,128 L1279.693,128 C1279.863,128 1280,128.137 1280,128.307 L1280,129.693 C1280,129.863 1279.863,130 1279.693,130 L0.307,130 C0.137,130 0,129.863 0,129.693 L0,128.307 C0,128.137 0.137,128 0.307,128 z" fill="url(#Gradient_3)" id="rect4788" opacity="0.503"/>
    <path d="M0.304,0 L1.696,0 C1.864,0 2,0.136 2,0.304 L2,129.696 C2,129.864 1.864,130 1.696,130 L0.304,130 C0.136,130 0,129.864 0,129.696 L0,0.304 C0,0.136 0.136,0 0.304,0 z" fill="url(#Gradient_4)" id="rect4792" opacity="0.503"/>
    <path d="M1278.304,0 L1279.696,0 C1279.864,0 1280,0.136 1280,0.304 L1280,129.696 C1280,129.864 1279.864,130 1279.696,130 L1278.304,130 C1278.136,130 1278,129.864 1278,129.696 L1278,0.304 C1278,0.136 1278.136,0 1278.304,0 z" fill="url(#Gradient_5)" id="rect4792-6" opacity="0.503"/>
  </g>
</svg>
