<?xml version="1.0" encoding="UTF-8"?>
<!DOCTYPE svg PUBLIC "-//W3C//DTD SVG 1.1//EN" "http://www.w3.org/Graphics/SVG/1.1/DTD/svg11.dtd">
<svg version="1.1" xmlns="http://www.w3.org/2000/svg" xmlns:xlink="http://www.w3.org/1999/xlink" x="0" y="0" width="1920" height="270" viewBox="0, 0, 1920, 270">
  <defs>
    <linearGradient id="Gradient_1" gradientUnits="userSpaceOnUse" x1="0.72" y1="972.46" x2="2208.183" y2="861.343" gradientTransform="matrix(1, 0, 0, 1, -2.02, -838.21)">
      <stop offset="0" stop-color="#282828"/>
      <stop offset="1" stop-color="#C1C1C1"/>
    </linearGradient>
    <radialGradient id="Gradient_2" gradientUnits="userSpaceOnUse" cx="1116" cy="945.071" r="1.217" gradientTransform="matrix(1, 0, 0, 100, 0, -94371.336)">
      <stop offset="0" stop-color="#FFFFFF"/>
      <stop offset="1" stop-color="#FFFFFF" stop-opacity="0"/>
    </radialGradient>
    <radialGradient id="Gradient_3" gradientUnits="userSpaceOnUse" cx="1329.805" cy="1073.332" r="310.068" gradientTransform="matrix(1, 0, 0, 0.006, 2, 6.157)">
      <stop offset="0" stop-color="#FFFFFF"/>
      <stop offset="1" stop-color="#FFFFFF" stop-opacity="0"/>
    </radialGradient>
    <radialGradient id="Gradient_4" gradientUnits="userSpaceOnUse" cx="1330.805" cy="9577.532" r="304.5" gradientTransform="matrix(1, 0, 0, 0.006, 0, 202.157)">
      <stop offset="0" stop-color="#FFFFFF"/>
      <stop offset="1" stop-color="#FFFFFF" stop-opacity="0"/>
    </radialGradient>
    <radialGradient id="Gradient_5" gradientUnits="userSpaceOnUse" cx="-1551" cy="945.056" r="1.217" gradientTransform="matrix(-1, 0, 0, 100, 0, -94371.336)">
      <stop offset="0" stop-color="#FFFFFF"/>
      <stop offset="1" stop-color="#FFFFFF" stop-opacity="0"/>
    </radialGradient>
  </defs>
  <g id="Ebene_1">
    <path d="M1920,-0.75 L1920,269.25 L0,269.25 L0,-0.75 L1920,-0.75 z M1548,14.25 L1117,14.25 L1117,256.75 L1200,256.75 L1200,256.75 L1546,256.75 L1546,256.75 L1548,256.75 L1548,14.25 z" fill="url(#Gradient_1)"/>
    <path d="M1115,14 L1117,14 L1117,257.5 L1115,257.5 z" fill="url(#Gradient_2)" id="rect8987"/>
    <path d="M1116,10.436 L1547.609,10.436 L1547.609,14 L1116,14 z" fill="url(#Gradient_3)" id="rect9023"/>
    <path d="M1116,257.5 L1545.609,257.5 L1545.609,261 L1116,261 z" fill="url(#Gradient_4)" id="rect9033"/>
    <path d="M19,111 L1093,111" fill-opacity="0" stroke="#FFFFFF" stroke-width="1.5"/>
    <path d="M1552,12.5 L1550,12.5 L1550,256 L1552,256 z" fill="url(#Gradient_5)" id="rect8987"/>
  </g>
</svg>
