<?xml version="1.0" encoding="UTF-8"?>
<!DOCTYPE svg PUBLIC "-//W3C//DTD SVG 1.1//EN" "http://www.w3.org/Graphics/SVG/1.1/DTD/svg11.dtd">
<svg version="1.1" xmlns="http://www.w3.org/2000/svg" xmlns:xlink="http://www.w3.org/1999/xlink" x="0" y="0" width="1728" height="162" viewBox="0, 0, 1728, 162">
  <defs>
    <radialGradient id="Gradient_1" gradientUnits="userSpaceOnUse" cx="200" cy="983.362" r="200" gradientTransform="matrix(4.318, 0, 0, 0.011, 0.574, -6.813)">
      <stop offset="0" stop-color="#FFFFFF"/>
      <stop offset="1" stop-color="#FFFFFF" stop-opacity="0"/>
    </radialGradient>
    <radialGradient id="Gradient_2" gradientUnits="userSpaceOnUse" cx="200" cy="983.362" r="200" gradientTransform="matrix(4.318, 0, 0, 0.011, 0.574, 150.687)">
      <stop offset="0" stop-color="#FFFFFF"/>
      <stop offset="1" stop-color="#FFFFFF" stop-opacity="0"/>
    </radialGradient>
    <radialGradient id="Gradient_3" gradientUnits="userSpaceOnUse" cx="200" cy="983.362" r="200" gradientTransform="matrix(4.318, 0, 0, 0.008, 0.574, -5.875)">
      <stop offset="0" stop-color="#FFFFFF"/>
      <stop offset="1" stop-color="#FFFFFF" stop-opacity="0"/>
    </radialGradient>
    <radialGradient id="Gradient_4" gradientUnits="userSpaceOnUse" cx="200" cy="983.362" r="200" gradientTransform="matrix(4.318, 0, 0, 0.008, 0.574, 153.125)">
      <stop offset="0" stop-color="#FFFFFF"/>
      <stop offset="1" stop-color="#FFFFFF" stop-opacity="0"/>
    </radialGradient>
  </defs>
  <g id="Gelb" opacity="0.899">
    <path d="M0.99,0 L1727.01,0 C1727.557,0 1728,0.443 1728,0.99 L1728,161.01 C1728,161.557 1727.557,162 1727.01,162 L0.99,162 C0.443,162 0,161.557 0,161.01 L0,0.99 C0,0.443 0.443,0 0.99,0 z" fill="#FFCC00" fill-opacity="0.807" id="rect4190"/>
    <path d="M238.398,45.942 C166.302,45.929 94.244,46.146 22.512,46.594 L22.512,148.952 C22.512,149.487 23.314,149.917 24.311,149.917 L1703.689,149.917 C1704.686,149.917 1705.488,149.487 1705.488,148.952 L1705.488,83.906 C1316.39,59.788 789.17,46.145 238.398,45.942 z" fill="#E7BC0D" fill-opacity="0.8" id="path4192"/>
    <path d="M24.131,15.649 C23.133,15.649 22.331,16.05 22.331,16.547 L22.331,66.476 C94.063,66.059 166.121,65.857 238.216,65.869 C788.986,66.059 1316.204,78.759 1705.302,101.211 L1705.302,16.547 C1705.302,16.05 1704.499,15.649 1703.502,15.649 L24.131,15.649 z" fill="#FFCC00" fill-opacity="0.796" id="path4194"/>
    <path d="M1.537,2 L1726.766,2 C1727.298,2 1727.729,2.431 1727.729,2.963 L1727.729,5.537 C1727.729,6.069 1727.298,6.5 1726.766,6.5 L1.537,6.5 C1.005,6.5 0.574,6.069 0.574,5.537 L0.574,2.963 C0.574,2.431 1.005,2 1.537,2 z" fill="url(#Gradient_1)" id="rect4196"/>
    <path d="M1.537,159.5 L1726.766,159.5 C1727.298,159.5 1727.729,159.931 1727.729,160.463 L1727.729,163.037 C1727.729,163.569 1727.298,164 1726.766,164 L1.537,164 C1.005,164 0.574,163.569 0.574,163.037 L0.574,160.463 C0.574,159.931 1.005,159.5 1.537,159.5 z" fill="url(#Gradient_2)" id="rect4198"/>
    <path d="M0.609,-0 L1727.694,-0 C1727.713,-0 1727.729,0.016 1727.729,0.035 L1727.729,2.965 C1727.729,2.984 1727.713,3 1727.694,3 L0.609,3 C0.59,3 0.574,2.984 0.574,2.965 L0.574,0.035 C0.574,0.016 0.59,-0 0.609,-0 z" fill="url(#Gradient_3)" id="rect4200"/>
    <path d="M0.609,159 L1727.694,159 C1727.713,159 1727.729,159.016 1727.729,159.035 L1727.729,161.965 C1727.729,161.984 1727.713,162 1727.694,162 L0.609,162 C0.59,162 0.574,161.984 0.574,161.965 L0.574,159.035 C0.574,159.016 0.59,159 0.609,159 z" fill="url(#Gradient_4)" id="rect4202"/>
  </g>
</svg>
