<?xml version="1.0" encoding="UTF-8"?>
<!DOCTYPE svg PUBLIC "-//W3C//DTD SVG 1.1//EN" "http://www.w3.org/Graphics/SVG/1.1/DTD/svg11.dtd">
<svg version="1.1" xmlns="http://www.w3.org/2000/svg" xmlns:xlink="http://www.w3.org/1999/xlink" x="0" y="0" width="64" height="64" viewBox="0, 0, 64, 64">
  <defs>
    <linearGradient id="Gradient_1" gradientUnits="userSpaceOnUse" x1="6.764" y1="35.879" x2="38.928" y2="38.692" gradientTransform="matrix(0.975, 0.215, -0.131, 1.107, 5.888, -18.287)">
      <stop offset="0" stop-color="#5B5B5B"/>
      <stop offset="1" stop-color="#1E1E1E"/>
    </linearGradient>
    <linearGradient id="Gradient_2" gradientUnits="userSpaceOnUse" x1="6.764" y1="35.879" x2="52.271" y2="35.879" gradientTransform="matrix(0.968, 0.215, -0.13, 1.107, 6.289, -19.767)">
      <stop offset="0" stop-color="#898989"/>
      <stop offset="1" stop-color="#4C4C4C"/>
    </linearGradient>
    <linearGradient id="Gradient_3" gradientUnits="userSpaceOnUse" x1="9.247" y1="29.735" x2="13.792" y2="29.735" gradientTransform="matrix(1, 0, 0, 1, 0.145, -4.536)">
      <stop offset="0" stop-color="#D3D7CF"/>
      <stop offset="1" stop-color="#9F9F9F"/>
    </linearGradient>
    <linearGradient id="Gradient_4" gradientUnits="userSpaceOnUse" x1="13.147" y1="33.525" x2="16.348" y2="33.525" gradientTransform="matrix(1, 0, 0, 1, 0.145, -4.536)">
      <stop offset="0" stop-color="#D3D7CF"/>
      <stop offset="1" stop-color="#9F9F9F"/>
    </linearGradient>
    <linearGradient id="Gradient_5" gradientUnits="userSpaceOnUse" x1="15.615" y1="35.545" x2="19.112" y2="35.545" gradientTransform="matrix(1, 0, 0, 1, 0.145, -4.536)">
      <stop offset="0" stop-color="#D3D7CF"/>
      <stop offset="1" stop-color="#9F9F9F"/>
    </linearGradient>
    <linearGradient id="Gradient_6" gradientUnits="userSpaceOnUse" x1="18.567" y1="37.219" x2="22.404" y2="37.219" gradientTransform="matrix(1, 0, 0, 1, 0.145, -4.536)">
      <stop offset="0" stop-color="#D3D7CF"/>
      <stop offset="1" stop-color="#9F9F9F"/>
    </linearGradient>
    <linearGradient id="Gradient_7" gradientUnits="userSpaceOnUse" x1="22.01" y1="38.614" x2="25.87" y2="38.614" gradientTransform="matrix(1, 0, 0, 1, 0.145, -4.536)">
      <stop offset="0" stop-color="#D3D7CF"/>
      <stop offset="1" stop-color="#9F9F9F"/>
    </linearGradient>
    <linearGradient id="Gradient_8" gradientUnits="userSpaceOnUse" x1="25.829" y1="39.82" x2="29.903" y2="39.82" gradientTransform="matrix(1, 0, 0, 1, 0.145, -4.536)">
      <stop offset="0" stop-color="#D3D7CF"/>
      <stop offset="1" stop-color="#9F9F9F"/>
    </linearGradient>
    <linearGradient id="Gradient_9" gradientUnits="userSpaceOnUse" x1="30.053" y1="40.707" x2="34.049" y2="40.707" gradientTransform="matrix(1, 0, 0, 1, 0.145, -4.536)">
      <stop offset="0" stop-color="#D3D7CF"/>
      <stop offset="1" stop-color="#9F9F9F"/>
    </linearGradient>
    <linearGradient id="Gradient_10" gradientUnits="userSpaceOnUse" x1="34.112" y1="1029.4" x2="37.834" y2="1029.4" gradientTransform="matrix(1, 0, 0, 1, 0.145, -992.896)">
      <stop offset="0" stop-color="#D3D7CF"/>
      <stop offset="1" stop-color="#9F9F9F"/>
    </linearGradient>
    <linearGradient id="Gradient_11" gradientUnits="userSpaceOnUse" x1="38.116" y1="41.089" x2="41.697" y2="41.089" gradientTransform="matrix(1, 0, 0, 1, 0.145, -4.536)">
      <stop offset="0" stop-color="#D3D7CF"/>
      <stop offset="1" stop-color="#9F9F9F"/>
    </linearGradient>
    <linearGradient id="Gradient_12" gradientUnits="userSpaceOnUse" x1="41.956" y1="41.428" x2="45.787" y2="41.428" gradientTransform="matrix(1, 0, 0, 1, 0.145, -4.536)">
      <stop offset="0" stop-color="#D3D7CF"/>
      <stop offset="1" stop-color="#9F9F9F"/>
    </linearGradient>
    <linearGradient id="Gradient_13" gradientUnits="userSpaceOnUse" x1="46.015" y1="42.779" x2="49.627" y2="42.779" gradientTransform="matrix(1, 0, 0, 1, 0.145, -4.536)">
      <stop offset="0" stop-color="#D3D7CF"/>
      <stop offset="1" stop-color="#9F9F9F"/>
    </linearGradient>
    <linearGradient id="Gradient_14" gradientUnits="userSpaceOnUse" x1="45.708" y1="48.931" x2="48.279" y2="48.931" gradientTransform="matrix(1, 0, 0, 1, 0.145, -4.536)">
      <stop offset="0" stop-color="#D3D7CF"/>
      <stop offset="1" stop-color="#9F9F9F"/>
    </linearGradient>
    <linearGradient id="Gradient_15" gradientUnits="userSpaceOnUse" x1="42.917" y1="50.369" x2="45.333" y2="50.369" gradientTransform="matrix(1, 0, 0, 1, 0.145, -4.536)">
      <stop offset="0" stop-color="#D3D7CF"/>
      <stop offset="1" stop-color="#9F9F9F"/>
    </linearGradient>
    <linearGradient id="Gradient_16" gradientUnits="userSpaceOnUse" x1="40.386" y1="55.432" x2="42.972" y2="55.432" gradientTransform="matrix(1, 0, 0, 1, 0.145, -4.536)">
      <stop offset="0" stop-color="#D3D7CF"/>
      <stop offset="1" stop-color="#9F9F9F"/>
    </linearGradient>
    <linearGradient id="Gradient_17" gradientUnits="userSpaceOnUse" x1="42.614" y1="58.782" x2="46.593" y2="58.782" gradientTransform="matrix(1, 0, 0, 1, 0.145, -4.536)">
      <stop offset="0" stop-color="#D3D7CF"/>
      <stop offset="1" stop-color="#9F9F9F"/>
    </linearGradient>
    <linearGradient id="Gradient_18" gradientUnits="userSpaceOnUse" x1="46.879" y1="60.517" x2="51.159" y2="60.517" gradientTransform="matrix(1, 0, 0, 1, 0.145, -4.536)">
      <stop offset="0" stop-color="#D3D7CF"/>
      <stop offset="1" stop-color="#9F9F9F"/>
    </linearGradient>
    <linearGradient id="Gradient_19" gradientUnits="userSpaceOnUse" x1="6.764" y1="35.879" x2="38.928" y2="38.692" gradientTransform="matrix(0.996, 0.214, -0.234, 0.913, 5.5, -7.826)">
      <stop offset="0" stop-color="#5B5B5B"/>
      <stop offset="1" stop-color="#1E1E1E"/>
    </linearGradient>
    <linearGradient id="Gradient_20" gradientUnits="userSpaceOnUse" x1="6.764" y1="35.879" x2="52.271" y2="35.879" gradientTransform="matrix(0.996, 0.222, -0.234, 0.946, 5.5, -10.066)">
      <stop offset="0" stop-color="#898989"/>
      <stop offset="1" stop-color="#4C4C4C"/>
    </linearGradient>
    <linearGradient id="Gradient_21" gradientUnits="userSpaceOnUse" x1="16.508" y1="26.327" x2="24.876" y2="21.984" gradientTransform="matrix(1.029, 0, 0, 1.283, -0.421, -10.637)">
      <stop offset="0" stop-color="#8C8C8C"/>
      <stop offset="0.5" stop-color="#444444"/>
      <stop offset="1" stop-color="#8C8C8C"/>
    </linearGradient>
    <linearGradient id="Gradient_22" gradientUnits="userSpaceOnUse" x1="12.201" y1="25.02" x2="25.119" y2="22.267" gradientTransform="matrix(1.029, 0, 0, 1.283, -0.421, -9.707)">
      <stop offset="0" stop-color="#0D0D0D"/>
      <stop offset="1" stop-color="#353535"/>
    </linearGradient>
    <linearGradient id="Gradient_23" gradientUnits="userSpaceOnUse" x1="29.119" y1="35.542" x2="37.785" y2="23.952" gradientTransform="matrix(0.966, 0.422, -0.393, 1.036, 13.598, -19.537)">
      <stop offset="0" stop-color="#8C8C8C"/>
      <stop offset="0.5" stop-color="#444444"/>
      <stop offset="1" stop-color="#8C8C8C"/>
    </linearGradient>
    <linearGradient id="Gradient_24" gradientUnits="userSpaceOnUse" x1="38.691" y1="33.205" x2="32.653" y2="27.042" gradientTransform="matrix(0.966, 0.422, -0.393, 1.036, 13.675, -18.607)">
      <stop offset="0" stop-color="#0D0D0D"/>
      <stop offset="1" stop-color="#353535"/>
    </linearGradient>
    <linearGradient id="Gradient_25" gradientUnits="userSpaceOnUse" x1="54.312" y1="33.426" x2="32.749" y2="12.374" gradientTransform="matrix(1.024, 0.293, -0.334, 0.898, 7.113, -14.726)">
      <stop offset="0" stop-color="#8C8C8C"/>
      <stop offset="0.485" stop-color="#444444"/>
      <stop offset="1" stop-color="#8C8C8C"/>
    </linearGradient>
    <linearGradient id="Gradient_26" gradientUnits="userSpaceOnUse" x1="52.945" y1="23.901" x2="40.339" y2="24.599" gradientTransform="matrix(1.024, 0.293, -0.334, 0.898, 6.57, -14.036)">
      <stop offset="0" stop-color="#0D0D0D"/>
      <stop offset="1" stop-color="#353535"/>
    </linearGradient>
    <linearGradient id="Gradient_27" gradientUnits="userSpaceOnUse" x1="25.021" y1="29.825" x2="37.785" y2="23.952" gradientTransform="matrix(0.443, 0.113, -0.132, 0.378, 21.232, 5.404)">
      <stop offset="0" stop-color="#8C8C8C"/>
      <stop offset="0.5" stop-color="#444444"/>
      <stop offset="1" stop-color="#8C8C8C"/>
    </linearGradient>
    <radialGradient id="Gradient_28" gradientUnits="userSpaceOnUse" cx="33.202" cy="22.07" r="7.956" gradientTransform="matrix(0.885, 0.188, -0.194, 0.44, 8.06, 2.061)">
      <stop offset="0" stop-color="#353535"/>
      <stop offset="1" stop-color="#0D0D0D"/>
    </radialGradient>
    <linearGradient id="Gradient_29" gradientUnits="userSpaceOnUse" x1="23.511" y1="17.858" x2="15.942" y2="10.244" gradientTransform="matrix(1.015, 0.166, -0.171, 0.986, 2.472, -7.696)">
      <stop offset="0" stop-color="#8C8C8C"/>
      <stop offset="0.5" stop-color="#444444"/>
      <stop offset="1" stop-color="#8C8C8C"/>
    </linearGradient>
    <linearGradient id="Gradient_30" gradientUnits="userSpaceOnUse" x1="17.429" y1="12.223" x2="26.528" y2="17.846" gradientTransform="matrix(1.015, 0.166, -0.171, 0.986, 2.24, -6.846)">
      <stop offset="0" stop-color="#0D0D0D"/>
      <stop offset="1" stop-color="#353535"/>
    </linearGradient>
    <linearGradient id="Gradient_31" gradientUnits="userSpaceOnUse" x1="42.769" y1="20.482" x2="26.004" y2="9.282" gradientTransform="matrix(1.014, 0.246, -0.247, 1.009, 2.764, -13.656)">
      <stop offset="0" stop-color="#8C8C8C"/>
      <stop offset="0.5" stop-color="#444444"/>
      <stop offset="1" stop-color="#8C8C8C"/>
    </linearGradient>
    <linearGradient id="Gradient_32" gradientUnits="userSpaceOnUse" x1="39.755" y1="8.709" x2="37.731" y2="18.28" gradientTransform="matrix(1.014, 0.246, -0.247, 1.009, 2.454, -12.797)">
      <stop offset="0" stop-color="#0D0D0D"/>
      <stop offset="1" stop-color="#353535"/>
    </linearGradient>
  </defs>
  <g id="Capa_1">
    <g id="g7317">
      <g id="path7082">
        <path d="M52.087,32.628 C51.249,39.717 40.666,43.284 28.45,40.595 C16.233,37.906 7.009,29.979 7.847,22.889 C8.685,15.8 19.268,12.233 31.485,14.922 C43.701,17.611 52.925,25.538 52.087,32.628 z" fill="url(#Gradient_1)"/>
        <path d="M52.087,32.628 C51.249,39.717 40.666,43.284 28.45,40.595 C16.233,37.906 7.009,29.979 7.847,22.889 C8.685,15.8 19.268,12.233 31.485,14.922 C43.701,17.611 52.925,25.538 52.087,32.628 z" fill-opacity="0" stroke="#2E3436" stroke-width="0.095" stroke-linecap="round" stroke-linejoin="round"/>
      </g>
      <g id="path7084">
        <path d="M52.165,31.148 C51.333,38.237 40.824,41.804 28.693,39.115 C16.562,36.426 7.403,28.499 8.235,21.409 C9.067,14.32 19.576,10.753 31.707,13.442 C43.838,16.131 52.997,24.058 52.165,31.148 z" fill="url(#Gradient_2)"/>
        <path d="M52.165,31.148 C51.333,38.237 40.824,41.804 28.693,39.115 C16.562,36.426 7.403,28.499 8.235,21.409 C9.067,14.32 19.576,10.753 31.707,13.442 C43.838,16.131 52.997,24.058 52.165,31.148 z" fill-opacity="0" stroke="#2E3436" stroke-width="0.095" stroke-linecap="round" stroke-linejoin="round"/>
      </g>
    </g>
    <g id="g7403">
      <g id="path7086">
        <path d="M9.066,20.21 C9.066,20.21 8.523,23.313 10.54,26.494 C12.557,29.675 14.807,33.786 24.116,36.424 C33.425,39.061 35.365,38.697 37.537,38.612 C39.588,38.531 44.338,38.959 46.148,39.449 C47.511,39.819 48.553,39.915 48.708,41.001 C48.863,42.087 46.536,42.087 44.674,43.25 C42.812,44.414 41.959,46.353 41.183,48.603 C40.407,50.853 39.942,51.784 40.717,52.947 C41.493,54.111 43.976,56.593 46.303,57.524 C48.63,58.455 51.19,58.61 51.19,58.61 L52.121,54.499 C52.121,54.499 49.096,54.344 46.148,52.404 C43.2,50.465 43.2,49.301 43.2,48.758 C43.2,48.215 44.519,47.517 45.993,46.897 C47.467,46.276 48.708,46.741 49.173,44.802 C49.639,42.863 50.492,39.76 50.337,38.286 C50.182,36.812 49.251,36.036 47.467,35.26 C45.682,34.484 43.898,34.097 41.881,34.097 C39.864,34.097 32.727,34.64 27.064,32.778 C21.401,30.916 13.721,25.874 12.092,24.012 C10.463,22.15 9.639,21.209 9.067,20.21 z" fill="#0D0D0D"/>
        <path d="M9.066,20.21 C9.066,20.21 8.523,23.313 10.54,26.494 C12.557,29.675 14.807,33.786 24.116,36.424 C33.425,39.061 35.365,38.697 37.537,38.612 C39.588,38.531 44.338,38.959 46.148,39.449 C47.511,39.819 48.553,39.915 48.708,41.001 C48.863,42.087 46.536,42.087 44.674,43.25 C42.812,44.414 41.959,46.353 41.183,48.603 C40.407,50.853 39.942,51.784 40.717,52.947 C41.493,54.111 43.976,56.593 46.303,57.524 C48.63,58.455 51.19,58.61 51.19,58.61 L52.121,54.499 C52.121,54.499 49.096,54.344 46.148,52.404 C43.2,50.465 43.2,49.301 43.2,48.758 C43.2,48.215 44.519,47.517 45.993,46.897 C47.467,46.276 48.708,46.741 49.173,44.802 C49.639,42.863 50.492,39.76 50.337,38.286 C50.182,36.812 49.251,36.036 47.467,35.26 C45.682,34.484 43.898,34.097 41.881,34.097 C39.864,34.097 32.727,34.64 27.064,32.778 C21.401,30.916 13.721,25.874 12.092,24.012 C10.463,22.15 9.639,21.209 9.067,20.21 z" fill-opacity="0" stroke="#2E3436" stroke-width="0.1"/>
      </g>
      <g id="g7299">
        <g id="path7088">
          <path d="M9.454,21.256 C9.454,21.256 9.567,23.971 10.685,25.864 C11.484,27.216 12.845,29.142 12.845,29.142 L13.874,26.186 C13.874,26.186 13.13,25.742 11.636,24.401 C10.307,23.209 9.881,21.828 9.454,21.256 z" fill="url(#Gradient_3)"/>
          <path d="M9.454,21.256 C9.454,21.256 9.567,23.971 10.685,25.864 C11.484,27.216 12.845,29.142 12.845,29.142 L13.874,26.186 C13.874,26.186 13.13,25.742 11.636,24.401 C10.307,23.209 9.881,21.828 9.454,21.256 z" fill-opacity="0" stroke="#2E3436" stroke-width="0.1"/>
        </g>
        <g id="path7090">
          <path d="M14.467,26.566 L13.354,29.698 L15.306,31.41 L16.431,28.345 L14.467,26.565 z" fill="url(#Gradient_4)"/>
          <path d="M14.467,26.566 L13.354,29.698 L15.306,31.41 L16.431,28.345 L14.467,26.565 z" fill-opacity="0" stroke="#2E3436" stroke-width="0.1"/>
        </g>
        <g id="path7105">
          <path d="M16.944,28.785 L19.194,30.124 L17.972,33.232 L15.822,31.849 L16.944,28.785 z" fill="url(#Gradient_5)"/>
          <path d="M16.944,28.785 L19.194,30.124 L17.972,33.232 L15.822,31.849 L16.944,28.785 z" fill-opacity="0" stroke="#2E3436" stroke-width="0.1"/>
        </g>
        <g id="path7115">
          <path d="M19.909,30.53 L22.61,31.457 L21.515,34.834 L18.773,33.572 L19.909,30.531 z" fill="url(#Gradient_6)"/>
          <path d="M19.909,30.53 L22.61,31.457 L21.515,34.834 L18.773,33.572 L19.909,30.531 z" fill-opacity="0" stroke="#2E3436" stroke-width="0.1"/>
        </g>
        <g id="path7125">
          <path d="M23.342,31.618 L26.327,32.789 L25.286,36.1 L22.217,35.109 L23.342,31.618 z" fill="url(#Gradient_7)"/>
          <path d="M23.342,31.618 L26.327,32.789 L25.286,36.1 L22.217,35.109 L23.342,31.618 z" fill-opacity="0" stroke="#2E3436" stroke-width="0.1"/>
        </g>
        <g id="path7135">
          <path d="M26.934,32.992 L30.298,33.903 L29.554,37.2 L26.036,36.306 L26.934,32.991 z" fill="url(#Gradient_8)"/>
          <path d="M26.934,32.992 L30.298,33.903 L29.554,37.2 L26.036,36.306 L26.934,32.991 z" fill-opacity="0" stroke="#2E3436" stroke-width="0.1"/>
        </g>
        <g id="path7145">
          <path d="M30.886,34.104 C30.886,34.104 31.723,34.338 32.696,34.503 C33.673,34.668 34.256,34.714 34.256,34.714 L33.708,37.98 C33.708,37.98 32.468,37.851 31.89,37.76 C31.19,37.651 30.26,37.431 30.26,37.431 L30.886,34.104 z" fill="url(#Gradient_9)"/>
          <path d="M30.886,34.104 C30.886,34.104 31.723,34.338 32.696,34.503 C33.673,34.668 34.256,34.714 34.256,34.714 L33.708,37.98 C33.708,37.98 32.468,37.851 31.89,37.76 C31.19,37.651 30.26,37.431 30.26,37.431 L30.886,34.104 z" fill-opacity="0" stroke="#2E3436" stroke-width="0.1"/>
        </g>
        <g id="path7155">
          <path d="M34.813,34.703 L37.916,34.743 L37.532,38.033 C37.532,38.033 36.461,38.111 35.925,38.103 C35.39,38.093 34.319,37.985 34.319,37.985 L34.813,34.829 L34.813,34.828 L34.813,34.703 z" fill="url(#Gradient_10)"/>
          <path d="M34.813,34.703 L37.916,34.743 L37.532,38.033 C37.532,38.033 36.461,38.111 35.925,38.103 C35.39,38.093 34.319,37.985 34.319,37.985 L34.813,34.829 L34.813,34.828 L34.813,34.703 z" fill-opacity="0" stroke="#2E3436" stroke-width="0.1"/>
        </g>
        <g id="path7165">
          <path d="M38.653,34.772 C38.653,34.772 39.737,34.765 40.263,34.761 C40.789,34.757 41.779,34.843 41.779,34.843 L41.443,38.219 C41.443,38.219 40.403,38.153 39.883,38.152 C39.363,38.151 38.324,38.117 38.324,38.117 L38.653,34.772 z" fill="url(#Gradient_11)"/>
          <path d="M38.653,34.772 C38.653,34.772 39.737,34.765 40.263,34.761 C40.789,34.757 41.779,34.843 41.779,34.843 L41.443,38.219 C41.443,38.219 40.403,38.153 39.883,38.152 C39.363,38.151 38.324,38.117 38.324,38.117 L38.653,34.772 z" fill-opacity="0" stroke="#2E3436" stroke-width="0.1"/>
        </g>
        <g id="path7175">
          <path d="M42.532,34.819 C42.532,34.819 43.696,35.005 44.232,35.066 C44.767,35.128 45.87,35.532 45.87,35.532 L45.454,38.839 C45.454,38.839 44.357,38.646 43.809,38.565 C43.26,38.484 42.163,38.353 42.163,38.353 L42.532,34.819 z" fill="url(#Gradient_12)"/>
          <path d="M42.532,34.819 C42.532,34.819 43.696,35.005 44.232,35.066 C44.767,35.128 45.87,35.532 45.87,35.532 L45.454,38.839 C45.454,38.839 44.357,38.646 43.809,38.565 C43.26,38.484 42.163,38.353 42.163,38.353 L42.532,34.819 z" fill-opacity="0" stroke="#2E3436" stroke-width="0.1"/>
        </g>
        <g id="path7185">
          <path d="M46.685,35.782 C46.685,35.782 47.995,36.027 48.84,36.661 C49.306,37.011 49.709,37.648 49.709,37.648 L48.98,40.703 C48.98,40.703 48.783,40.082 48.133,39.716 C47.185,39.183 46.222,39.074 46.222,39.074 L46.685,35.782 z" fill="url(#Gradient_13)"/>
          <path d="M46.685,35.782 C46.685,35.782 47.995,36.027 48.84,36.661 C49.306,37.011 49.709,37.648 49.709,37.648 L48.98,40.703 C48.98,40.703 48.783,40.082 48.133,39.716 C47.185,39.183 46.222,39.074 46.222,39.074 L46.685,35.782 z" fill-opacity="0" stroke="#2E3436" stroke-width="0.1"/>
        </g>
        <g id="path7195">
          <path d="M48.362,42.403 L47.726,45.734 L45.916,46.385 L46.207,43.399 L48.362,42.403 z" fill="url(#Gradient_14)"/>
          <path d="M48.362,42.403 L47.726,45.734 L45.916,46.385 L46.207,43.399 L48.362,42.403 z" fill-opacity="0" stroke="#2E3436" stroke-width="0.1"/>
        </g>
        <g id="path7205">
          <path d="M45.416,43.721 L45.071,46.722 C45.071,46.722 44.522,47.011 44.028,47.285 C43.535,47.56 43.151,47.944 43.151,47.944 C43.151,47.944 42.931,45.804 43.754,44.981 C44.577,44.159 45.196,43.72 45.416,43.72 z" fill="url(#Gradient_15)"/>
          <path d="M45.416,43.721 L45.071,46.722 C45.071,46.722 44.522,47.011 44.028,47.285 C43.535,47.56 43.151,47.944 43.151,47.944 C43.151,47.944 42.931,45.804 43.754,44.981 C44.577,44.159 45.196,43.72 45.416,43.72 z" fill-opacity="0" stroke="#2E3436" stroke-width="0.1"/>
        </g>
        <g id="path7215">
          <path d="M41.764,47.717 C41.764,47.717 41.944,48.547 42.218,49.315 C42.492,50.083 43.055,51.084 43.055,51.084 C43.055,51.084 42.698,51.715 42.41,52.566 C42.144,53.352 42.163,54.074 42.163,54.074 L40.737,52.003 C40.475,51.622 40.582,50.979 40.972,49.864 C41.411,48.611 41.654,47.881 41.764,47.717 z" fill="url(#Gradient_16)"/>
          <path d="M41.764,47.717 C41.764,47.717 41.944,48.547 42.218,49.315 C42.492,50.083 43.055,51.084 43.055,51.084 C43.055,51.084 42.698,51.715 42.41,52.566 C42.144,53.352 42.163,54.074 42.163,54.074 L40.737,52.003 C40.475,51.622 40.582,50.979 40.972,49.864 C41.411,48.611 41.654,47.881 41.764,47.717 z" fill-opacity="0" stroke="#2E3436" stroke-width="0.1"/>
        </g>
        <g id="path7225">
          <path d="M43.644,51.606 C43.644,51.606 44.316,52.223 45.084,52.744 C45.754,53.198 46.674,53.704 46.674,53.704 C46.674,53.704 46.441,54.417 46.332,55.349 C46.222,56.282 46.332,56.885 46.332,56.885 C46.332,56.885 45.331,56.487 44.316,55.829 C43.331,55.19 42.821,54.65 42.821,54.65 C42.821,54.65 42.876,53.923 43.095,53.1 C43.315,52.277 43.406,52.105 43.644,51.605 z" fill="url(#Gradient_17)"/>
          <path d="M43.644,51.606 C43.644,51.606 44.316,52.223 45.084,52.744 C45.754,53.198 46.674,53.704 46.674,53.704 C46.674,53.704 46.441,54.417 46.332,55.349 C46.222,56.282 46.332,56.885 46.332,56.885 C46.332,56.885 45.331,56.487 44.316,55.829 C43.331,55.19 42.821,54.65 42.821,54.65 C42.821,54.65 42.876,53.923 43.095,53.1 C43.315,52.277 43.406,52.105 43.644,51.605 z" fill-opacity="0" stroke="#2E3436" stroke-width="0.1"/>
        </g>
        <g id="path7235">
          <path d="M47.429,53.965 C47.429,53.965 48.416,54.472 49.458,54.746 C50.501,55.02 51.241,55.116 51.241,55.116 L50.624,57.996 C50.624,57.996 49.815,57.969 48.773,57.695 C47.731,57.42 47.1,57.105 47.1,57.105 C47.1,57.105 47.045,56.392 47.154,55.569 C47.264,54.746 47.374,53.965 47.429,53.965 z" fill="url(#Gradient_18)"/>
          <path d="M47.429,53.965 C47.429,53.965 48.416,54.472 49.458,54.746 C50.501,55.02 51.241,55.116 51.241,55.116 L50.624,57.996 C50.624,57.996 49.815,57.969 48.773,57.695 C47.731,57.42 47.1,57.105 47.1,57.105 C47.1,57.105 47.045,56.392 47.154,55.569 C47.264,54.746 47.374,53.965 47.429,53.965 z" fill-opacity="0" stroke="#2E3436" stroke-width="0.1"/>
        </g>
      </g>
    </g>
    <g id="g7395">
      <g id="path7023">
        <path d="M55.983,25.84 C54.196,32.818 42.092,36.185 28.948,33.36 C15.804,30.535 6.597,22.588 8.385,15.61 C10.172,8.631 22.275,5.264 35.419,8.089 C48.564,10.914 57.77,18.861 55.983,25.84 z" fill="url(#Gradient_19)"/>
        <path d="M55.983,25.84 C54.196,32.818 42.092,36.185 28.948,33.36 C15.804,30.535 6.597,22.588 8.385,15.61 C10.172,8.631 22.275,5.264 35.419,8.089 C48.564,10.914 57.77,18.861 55.983,25.84 z" fill-opacity="0" stroke="#2E3436" stroke-width="0.104" stroke-linecap="round" stroke-linejoin="round"/>
      </g>
      <g id="path6511">
        <path d="M55.983,24.833 C54.196,32.068 42.092,35.558 28.948,32.629 C15.804,29.701 6.597,21.462 8.385,14.228 C10.172,6.994 22.275,3.504 35.419,6.432 C48.564,9.361 57.77,17.599 55.983,24.833 z" fill="url(#Gradient_20)"/>
        <path d="M55.983,24.833 C54.196,32.068 42.092,35.558 28.948,32.629 C15.804,29.701 6.597,21.462 8.385,14.228 C10.172,6.994 22.275,3.504 35.419,6.432 C48.564,9.361 57.77,17.599 55.983,24.833 z" fill-opacity="0" stroke="#2E3436" stroke-width="0.102" stroke-linecap="round" stroke-linejoin="round"/>
      </g>
    </g>
    <g id="path7025">
      <path d="M25.435,19.668 C25.435,21.894 22.327,23.699 18.492,23.699 C14.658,23.699 11.549,21.894 11.549,19.668 C11.549,17.442 14.658,15.638 18.492,15.638 C22.327,15.638 25.435,17.442 25.435,19.668 z" fill="url(#Gradient_21)"/>
      <path d="M25.435,19.668 C25.435,21.894 22.327,23.699 18.492,23.699 C14.658,23.699 11.549,21.894 11.549,19.668 C11.549,17.442 14.658,15.638 18.492,15.638 C22.327,15.638 25.435,17.442 25.435,19.668 z" fill-opacity="0" stroke="#2E3436" stroke-width="0.09" stroke-linecap="round" stroke-linejoin="round"/>
    </g>
    <g id="path7027">
      <path d="M25.435,20.598 C25.435,22.824 22.327,24.629 18.492,24.629 C14.658,24.629 11.549,22.824 11.549,20.598 C11.549,18.372 14.658,16.568 18.492,16.568 C22.327,16.568 25.435,18.372 25.435,20.598 z" fill="url(#Gradient_22)"/>
      <path d="M25.435,20.598 C25.435,22.824 22.327,24.629 18.492,24.629 C14.658,24.629 11.549,22.824 11.549,20.598 C11.549,18.372 14.658,16.568 18.492,16.568 C22.327,16.568 25.435,18.372 25.435,20.598 z" fill-opacity="0" stroke="#2E3436" stroke-width="0.09" stroke-linecap="round" stroke-linejoin="round"/>
    </g>
    <g id="path7031">
      <path d="M42.389,30.007 C41.589,32.115 38.055,32.563 34.497,31.009 C30.938,29.454 28.703,26.484 29.503,24.376 C30.304,22.268 33.837,21.82 37.396,23.374 C40.954,24.929 43.19,27.899 42.389,30.007 z" fill="url(#Gradient_23)"/>
      <path d="M42.389,30.007 C41.589,32.115 38.055,32.563 34.497,31.009 C30.938,29.454 28.703,26.484 29.503,24.376 C30.304,22.268 33.837,21.82 37.396,23.374 C40.954,24.929 43.19,27.899 42.389,30.007 z" fill-opacity="0" stroke="#2E3436" stroke-width="0.098" stroke-linecap="round" stroke-linejoin="round"/>
    </g>
    <g id="path7033">
      <path d="M42.466,30.937 C41.666,33.045 38.132,33.493 34.574,31.939 C31.015,30.384 28.78,27.414 29.58,25.306 C30.381,23.198 33.914,22.75 37.473,24.304 C41.031,25.859 43.267,28.829 42.466,30.937 z" fill="url(#Gradient_24)"/>
      <path d="M42.466,30.937 C41.666,33.045 38.132,33.493 34.574,31.939 C31.015,30.384 28.78,27.414 29.58,25.306 C30.381,23.198 33.914,22.75 37.473,24.304 C41.031,25.859 43.267,28.829 42.466,30.937 z" fill-opacity="0" stroke="#2E3436" stroke-width="0.098" stroke-linecap="round" stroke-linejoin="round"/>
    </g>
    <g id="path7037">
      <path d="M53.459,22.75 C52.881,24.308 49.78,24.82 46.534,23.892 C43.288,22.965 41.126,20.95 41.705,19.392 C42.284,17.833 45.384,17.322 48.63,18.25 C51.876,19.177 54.038,21.192 53.459,22.75 z" fill="url(#Gradient_25)"/>
      <path d="M53.459,22.75 C52.881,24.308 49.78,24.82 46.534,23.892 C43.288,22.965 41.126,20.95 41.705,19.392 C42.284,17.833 45.384,17.322 48.63,18.25 C51.876,19.177 54.038,21.192 53.459,22.75 z" fill-opacity="0" stroke="#2E3436" stroke-width="0.106" stroke-linecap="round" stroke-linejoin="round"/>
    </g>
    <g id="path7039">
      <path d="M52.916,23.44 C52.338,24.998 49.237,25.51 45.991,24.582 C42.745,23.655 40.583,21.64 41.162,20.082 C41.741,18.523 44.841,18.012 48.087,18.94 C51.333,19.867 53.495,21.882 52.916,23.44 z" fill="url(#Gradient_26)"/>
      <path d="M52.916,23.44 C52.338,24.998 49.237,25.51 45.991,24.582 C42.745,23.655 40.583,21.64 41.162,20.082 C41.741,18.523 44.841,18.012 48.087,18.94 C51.333,19.867 53.495,21.882 52.916,23.44 z" fill-opacity="0" stroke="#2E3436" stroke-width="0.106" stroke-linecap="round" stroke-linejoin="round"/>
    </g>
    <g id="path7043">
      <path d="M36.509,18.376 C36.156,19.389 34.315,19.816 32.398,19.329 C30.48,18.842 29.212,17.625 29.565,16.612 C29.917,15.598 31.758,15.172 33.676,15.659 C35.593,16.146 36.862,17.362 36.509,18.376 z" fill="url(#Gradient_27)"/>
      <path d="M36.509,18.376 C36.156,19.389 34.315,19.816 32.398,19.329 C30.48,18.842 29.212,17.625 29.565,16.612 C29.917,15.598 31.758,15.172 33.676,15.659 C35.593,16.146 36.862,17.362 36.509,18.376 z" fill-opacity="0" stroke="#2E3436" stroke-width="0.107" stroke-linecap="round" stroke-linejoin="round"/>
    </g>
    <g id="path7045">
      <path d="M36.447,18.943 C36.103,19.929 34.353,20.301 32.539,19.773 C30.725,19.244 29.534,18.016 29.878,17.03 C30.222,16.044 31.972,15.672 33.786,16.201 C35.6,16.729 36.791,17.957 36.447,18.943 z" fill="url(#Gradient_28)"/>
      <path d="M36.447,18.943 C36.103,19.929 34.353,20.301 32.539,19.773 C30.725,19.244 29.534,18.016 29.878,17.03 C30.222,16.044 31.972,15.672 33.786,16.201 C35.6,16.729 36.791,17.957 36.447,18.943 z" fill-opacity="0" stroke="#2E3436" stroke-width="0.106" stroke-linecap="round" stroke-linejoin="round"/>
    </g>
    <g id="path7068">
      <path d="M27.765,10.88 C27.498,12.422 24.9,13.283 21.963,12.802 C19.026,12.321 16.863,10.681 17.13,9.139 C17.398,7.597 19.996,6.737 22.933,7.218 C25.869,7.699 28.033,9.338 27.765,10.88 z" fill="url(#Gradient_29)"/>
      <path d="M27.765,10.88 C27.498,12.422 24.9,13.283 21.963,12.802 C19.026,12.321 16.863,10.681 17.13,9.139 C17.398,7.597 19.996,6.737 22.933,7.218 C25.869,7.699 28.033,9.338 27.765,10.88 z" fill-opacity="0" stroke="#2E3436" stroke-width="0.101" stroke-linecap="round" stroke-linejoin="round"/>
    </g>
    <g id="path7070">
      <path d="M27.533,11.73 C27.265,13.272 24.667,14.133 21.73,13.652 C18.793,13.171 16.63,11.531 16.898,9.989 C17.165,8.447 19.763,7.587 22.7,8.068 C25.637,8.549 27.8,10.188 27.533,11.73 z" fill="url(#Gradient_30)"/>
      <path d="M27.533,11.73 C27.265,13.272 24.667,14.133 21.73,13.652 C18.793,13.171 16.63,11.531 16.898,9.989 C17.165,8.447 19.763,7.587 22.7,8.068 C25.637,8.549 27.8,10.188 27.533,11.73 z" fill-opacity="0" stroke="#2E3436" stroke-width="0.101" stroke-linecap="round" stroke-linejoin="round"/>
    </g>
    <g id="path7074">
      <path d="M44.358,12.787 C43.972,14.364 41.177,15.042 38.115,14.3 C35.054,13.559 32.884,11.679 33.27,10.102 C33.656,8.524 36.451,7.847 39.513,8.588 C42.575,9.33 44.744,11.21 44.358,12.787 z" fill="url(#Gradient_31)"/>
      <path d="M44.358,12.787 C43.972,14.364 41.177,15.042 38.115,14.3 C35.054,13.559 32.884,11.679 33.27,10.102 C33.656,8.524 36.451,7.847 39.513,8.588 C42.575,9.33 44.744,11.21 44.358,12.787 z" fill-opacity="0" stroke="#2E3436" stroke-width="0.1" stroke-linecap="round" stroke-linejoin="round"/>
    </g>
    <g id="path7076">
      <path d="M44.048,13.647 C43.662,15.224 40.867,15.902 37.805,15.16 C34.743,14.419 32.574,12.539 32.96,10.962 C33.346,9.384 36.141,8.707 39.202,9.448 C42.264,10.19 44.434,12.07 44.048,13.647 z" fill="url(#Gradient_32)"/>
      <path d="M44.048,13.647 C43.662,15.224 40.867,15.902 37.805,15.16 C34.743,14.419 32.574,12.539 32.96,10.962 C33.346,9.384 36.141,8.707 39.202,9.448 C42.264,10.19 44.434,12.07 44.048,13.647 z" fill-opacity="0" stroke="#2E3436" stroke-width="0.1" stroke-linecap="round" stroke-linejoin="round"/>
    </g>
  </g>
</svg>
