<?xml version="1.0" encoding="UTF-8"?>
<!DOCTYPE svg PUBLIC "-//W3C//DTD SVG 1.1//EN" "http://www.w3.org/Graphics/SVG/1.1/DTD/svg11.dtd">
<svg version="1.1" xmlns="http://www.w3.org/2000/svg" xmlns:xlink="http://www.w3.org/1999/xlink" x="0" y="0" width="212.59" height="227.06" viewBox="0, 0, 212.59, 227.06">
  <defs>
    <radialGradient id="Gradient_1" gradientUnits="userSpaceOnUse" cx="362.32" cy="27.558" r="84.165" gradientTransform="matrix(0.648, 1.206, -1.141, 0.613, -136.293, -376.285)">
      <stop offset="0" stop-color="#784421"/>
      <stop offset="1" stop-color="#28170B"/>
    </radialGradient>
    <radialGradient id="Gradient_2" gradientUnits="userSpaceOnUse" cx="158.83" cy="115.75" r="106.29" gradientTransform="matrix(0.571, 1.002, -1.129, 0.643, 100.39, -131.58)">
      <stop offset="0" stop-color="#C8BEB7"/>
      <stop offset="1" stop-color="#808080"/>
    </radialGradient>
    <radialGradient id="Gradient_3" gradientUnits="userSpaceOnUse" cx="163.38" cy="92.206" r="106.29" gradientTransform="matrix(0.767, 1.275, -1.011, 0.608, 61.89, -174.92)">
      <stop offset="0" stop-color="#C8BEB7"/>
      <stop offset="1" stop-color="#808080"/>
    </radialGradient>
  </defs>
  <g id="g3271">
    <path d="M176.88,106.307 C176.88,145.288 145.279,176.889 106.298,176.889 C67.316,176.889 35.715,145.288 35.715,106.307 C35.715,67.325 67.316,35.725 106.298,35.725 C145.279,35.725 176.88,67.325 176.88,106.307 z" fill-opacity="0" stroke="#784421" stroke-width="0.265" id="path3530"/>
    <path d="M182.028,106.307 C182.028,148.133 148.121,182.04 106.295,182.04 C64.469,182.04 30.562,148.133 30.562,106.307 C30.562,64.481 64.469,30.574 106.295,30.574 C148.121,30.574 182.028,64.481 182.028,106.307 z" fill-opacity="0" stroke="#784421" stroke-width="0.285" id="path3526"/>
    <path d="M186.073,106.306 C186.073,150.367 150.355,186.085 106.294,186.085 C62.234,186.085 26.516,150.367 26.516,106.306 C26.516,62.246 62.234,26.527 106.294,26.527 C150.355,26.527 186.073,62.246 186.073,106.306 z" fill-opacity="0" stroke="#784421" stroke-width="0.3" id="path3520"/>
    <g id="path2435">
      <path d="M186.073,106.306 C186.073,150.367 150.355,186.085 106.294,186.085 C62.234,186.085 26.516,150.367 26.516,106.306 C26.516,62.246 62.234,26.527 106.294,26.527 C150.355,26.527 186.073,62.246 186.073,106.306 z" fill="url(#Gradient_1)"/>
      <path d="M186.073,106.306 C186.073,150.367 150.355,186.085 106.294,186.085 C62.234,186.085 26.516,150.367 26.516,106.306 C26.516,62.246 62.234,26.527 106.294,26.527 C150.355,26.527 186.073,62.246 186.073,106.306 z" fill-opacity="0" stroke="#896F5D" stroke-width="0.3"/>
    </g>
    <g id="g3612">
      <path d="M177.843,106.307 C177.843,145.826 145.806,177.862 106.287,177.862 C66.768,177.862 34.732,145.826 34.732,106.307 C34.732,66.788 66.768,34.751 106.287,34.751 C145.806,34.751 177.843,66.788 177.843,106.307 z" fill-opacity="0" stroke="#7A411C" stroke-width="0.3" id="path3554"/>
      <path d="M168.668,106.307 C168.668,140.759 140.739,168.687 106.288,168.687 C71.836,168.687 43.908,140.759 43.908,106.307 C43.908,71.856 71.837,43.927 106.288,43.927 C140.739,43.927 168.668,71.856 168.668,106.307 z" fill-opacity="0" stroke="#7A411C" stroke-width="0.3" id="path3556"/>
      <path d="M159.493,106.307 C159.493,135.691 135.673,159.511 106.289,159.511 C76.905,159.511 53.085,135.691 53.085,106.307 C53.085,76.923 76.905,53.103 106.289,53.103 C135.673,53.103 159.493,76.923 159.493,106.307 z" fill-opacity="0" stroke="#7A411C" stroke-width="0.3" id="path3558"/>
      <path d="M151.791,106.307 C151.791,131.434 131.421,151.804 106.294,151.804 C81.167,151.804 60.797,131.434 60.797,106.307 C60.797,81.18 81.167,60.81 106.294,60.81 C131.421,60.81 151.791,81.18 151.791,106.307 z" fill-opacity="0" stroke="#7A411C" stroke-width="0.3" id="path3560"/>
    </g>
    <path d="M176.88,106.307 C176.88,145.288 145.279,176.889 106.298,176.889 C67.316,176.889 35.715,145.288 35.715,106.307 C35.715,67.325 67.316,35.725 106.298,35.725 C145.279,35.725 176.88,67.325 176.88,106.307 z" fill-opacity="0" stroke="#784421" stroke-width="0.265" id="path3538"/>
    <g id="g3548">
      <path d="M186.063,106.306 C186.063,150.367 150.345,186.085 106.284,186.085 C62.224,186.085 26.506,150.367 26.506,106.306 C26.506,62.246 62.224,26.527 106.284,26.527 C150.345,26.527 186.063,62.246 186.063,106.306 z" fill-opacity="0" stroke="#784421" stroke-width="0.3" id="path3534"/>
      <path d="M182.028,106.306 C182.028,148.132 148.121,182.039 106.295,182.039 C64.469,182.039 30.562,148.132 30.562,106.306 C30.562,64.48 64.469,30.574 106.295,30.574 C148.121,30.574 182.028,64.48 182.028,106.306 z" fill-opacity="0" stroke="#784421" stroke-width="0.285" id="path3536"/>
      <path d="M176.87,106.307 C176.87,145.288 145.269,176.889 106.288,176.889 C67.306,176.889 35.705,145.288 35.705,106.307 C35.705,67.325 67.306,35.724 106.288,35.724 C145.269,35.724 176.87,67.325 176.87,106.307 z" fill-opacity="0" stroke="#784421" stroke-width="0.265" id="path3540"/>
      <path d="M161.789,106.306 C161.789,136.958 136.941,161.806 106.29,161.806 C75.638,161.806 50.79,136.958 50.79,106.306 C50.79,75.655 75.638,50.807 106.29,50.807 C136.941,50.807 161.789,75.655 161.789,106.306 z" fill-opacity="0" stroke="#784421" stroke-width="0.209" id="path3542"/>
    </g>
    <path d="M182.75,118.21 C195.09,160.81 128.51,215.16 164.32,226.56" fill-opacity="0" stroke="#2E1A0C" stroke-width="1.5" id="path3626"/>
    <path d="M176.88,106.307 C176.88,145.288 145.279,176.889 106.298,176.889 C67.316,176.889 35.715,145.288 35.715,106.307 C35.715,67.325 67.316,35.725 106.298,35.725 C145.279,35.725 176.88,67.325 176.88,106.307 z" fill-opacity="0" stroke="#784421" stroke-width="0.265" id="path3528"/>
    <g id="path2384">
      <path d="M106.29,0.464 C79.199,0.464 52.107,10.806 31.45,31.464 C-9.865,72.778 -9.865,139.844 31.45,181.154 C72.764,222.474 139.82,222.474 181.14,181.154 C222.45,139.844 222.45,72.784 181.14,31.464 C160.48,10.81 133.39,0.468 106.29,0.468 z M60.606,31.557 C68.234,31.557 75.852,34.46 81.668,40.276 C93.301,51.909 93.301,70.769 81.668,82.401 C70.036,94.034 51.144,94.034 39.512,82.401 C27.88,70.769 27.88,51.909 39.512,40.276 C45.328,34.46 52.977,31.557 60.606,31.557 z M151.26,31.557 C158.89,31.557 166.51,34.46 172.32,40.276 C183.96,51.909 183.96,70.769 172.32,82.401 C160.69,94.034 141.83,94.034 130.2,82.401 C118.57,70.769 118.57,51.909 130.2,40.276 C136.02,34.46 143.63,31.557 151.26,31.557 z M106.29,82.464 C112.4,82.464 118.48,84.811 123.14,89.464 C132.44,98.768 132.44,113.85 123.14,123.15 C113.83,132.46 98.754,132.46 89.45,123.15 C80.145,113.85 80.145,98.768 89.45,89.464 C94.102,84.811 100.19,82.464 106.29,82.464 z M60.606,122.21 C68.234,122.21 75.852,125.12 81.668,130.93 C93.301,142.56 93.301,161.46 81.668,173.09 C70.036,184.72 51.144,184.72 39.512,173.09 C27.88,161.46 27.88,142.56 39.512,130.93 C45.328,125.12 52.977,122.21 60.606,122.21 z M151.26,122.21 C158.89,122.21 166.51,125.12 172.32,130.93 C183.96,142.56 183.96,161.46 172.32,173.09 C160.69,184.72 141.83,184.72 130.2,173.09 C118.57,161.46 118.57,142.56 130.2,130.93 C136.02,125.12 143.63,122.21 151.26,122.21 z" fill="url(#Gradient_2)"/>
      <path d="M106.29,0.464 C79.199,0.464 52.107,10.806 31.45,31.464 C-9.865,72.778 -9.865,139.844 31.45,181.154 C72.764,222.474 139.82,222.474 181.14,181.154 C222.45,139.844 222.45,72.784 181.14,31.464 C160.48,10.81 133.39,0.468 106.29,0.468 z M60.606,31.557 C68.234,31.557 75.852,34.46 81.668,40.276 C93.301,51.909 93.301,70.769 81.668,82.401 C70.036,94.034 51.144,94.034 39.512,82.401 C27.88,70.769 27.88,51.909 39.512,40.276 C45.328,34.46 52.977,31.557 60.606,31.557 z M151.26,31.557 C158.89,31.557 166.51,34.46 172.32,40.276 C183.96,51.909 183.96,70.769 172.32,82.401 C160.69,94.034 141.83,94.034 130.2,82.401 C118.57,70.769 118.57,51.909 130.2,40.276 C136.02,34.46 143.63,31.557 151.26,31.557 z M106.29,82.464 C112.4,82.464 118.48,84.811 123.14,89.464 C132.44,98.768 132.44,113.85 123.14,123.15 C113.83,132.46 98.754,132.46 89.45,123.15 C80.145,113.85 80.145,98.768 89.45,89.464 C94.102,84.811 100.19,82.464 106.29,82.464 z M60.606,122.21 C68.234,122.21 75.852,125.12 81.668,130.93 C93.301,142.56 93.301,161.46 81.668,173.09 C70.036,184.72 51.144,184.72 39.512,173.09 C27.88,161.46 27.88,142.56 39.512,130.93 C45.328,125.12 52.977,122.21 60.606,122.21 z M151.26,122.21 C158.89,122.21 166.51,125.12 172.32,130.93 C183.96,142.56 183.96,161.46 172.32,173.09 C160.69,184.72 141.83,184.72 130.2,173.09 C118.57,161.46 118.57,142.56 130.2,130.93 C136.02,125.12 143.63,122.21 151.26,122.21 z" fill-opacity="0" stroke="#A6A6A6" stroke-width="0.927"/>
    </g>
    <g id="path2433">
      <path d="M106.29,79.182 C99.346,79.182 92.403,81.823 87.106,87.12 C76.512,97.714 76.512,114.9 87.106,125.49 C97.7,136.09 114.89,136.09 125.48,125.49 C136.07,114.9 136.07,97.714 125.48,87.12 C120.18,81.823 113.24,79.182 106.29,79.182 z M106.29,82.464 C112.4,82.464 118.48,84.811 123.14,89.464 C132.44,98.768 132.44,113.85 123.14,123.15 C113.83,132.46 98.754,132.46 89.45,123.15 C80.145,113.85 80.145,98.768 89.45,89.464 C94.102,84.811 100.19,82.464 106.29,82.464 z" fill="#FF0000"/>
      <path d="M106.29,79.182 C99.346,79.182 92.403,81.823 87.106,87.12 C76.512,97.714 76.512,114.9 87.106,125.49 C97.7,136.09 114.89,136.09 125.48,125.49 C136.07,114.9 136.07,97.714 125.48,87.12 C120.18,81.823 113.24,79.182 106.29,79.182 z M106.29,82.464 C112.4,82.464 118.48,84.811 123.14,89.464 C132.44,98.768 132.44,113.85 123.14,123.15 C113.83,132.46 98.754,132.46 89.45,123.15 C80.145,113.85 80.145,98.768 89.45,89.464 C94.102,84.811 100.19,82.464 106.29,82.464 z" fill-opacity="0" stroke="#000000" stroke-width="0.238"/>
    </g>
    <g id="path2452">
      <path d="M106.29,78.432 C90.9,78.432 78.418,90.914 78.418,106.31 C78.418,121.7 90.9,134.18 106.29,134.18 C121.69,134.18 134.17,121.7 134.17,106.31 C134.17,90.914 121.69,78.432 106.29,78.432 z M96.012,89.464 C97.73,89.464 99.421,90.122 100.73,91.432 C103.35,94.052 103.35,98.313 100.73,100.93 C98.111,103.55 93.882,103.55 91.262,100.93 C88.642,98.313 88.642,94.052 91.262,91.432 C92.572,90.122 94.294,89.464 96.012,89.464 z M116.42,89.464 C118.14,89.464 119.86,90.122 121.17,91.432 C123.79,94.052 123.79,98.313 121.17,100.93 C118.55,103.55 114.29,103.55 111.67,100.93 C109.05,98.313 109.05,94.052 111.67,91.432 C112.98,90.122 114.7,89.464 116.42,89.464 z M106.29,103.84 C106.93,103.84 107.56,104.08 108.04,104.56 C109.01,105.52 109.01,107.09 108.04,108.06 C107.08,109.02 105.51,109.02 104.54,108.06 C103.58,107.09 103.58,105.52 104.54,104.56 C105.03,104.08 105.66,103.84 106.29,103.84 z M96.012,109.9 C97.73,109.9 99.421,110.56 100.73,111.87 C103.35,114.49 103.35,118.72 100.73,121.34 C98.111,123.96 93.882,123.96 91.262,121.34 C88.642,118.72 88.642,114.49 91.262,111.87 C92.572,110.56 94.294,109.9 96.012,109.9 z M116.42,109.9 C118.14,109.9 119.86,110.56 121.17,111.87 C123.79,114.49 123.79,118.72 121.17,121.34 C118.55,123.96 114.29,123.96 111.67,121.34 C109.05,118.72 109.05,114.49 111.67,111.87 C112.98,110.56 114.7,109.9 116.42,109.9 z" fill="url(#Gradient_3)"/>
      <path d="M106.29,78.432 C90.9,78.432 78.418,90.914 78.418,106.31 C78.418,121.7 90.9,134.18 106.29,134.18 C121.69,134.18 134.17,121.7 134.17,106.31 C134.17,90.914 121.69,78.432 106.29,78.432 z M96.012,89.464 C97.73,89.464 99.421,90.122 100.73,91.432 C103.35,94.052 103.35,98.313 100.73,100.93 C98.111,103.55 93.882,103.55 91.262,100.93 C88.642,98.313 88.642,94.052 91.262,91.432 C92.572,90.122 94.294,89.464 96.012,89.464 z M116.42,89.464 C118.14,89.464 119.86,90.122 121.17,91.432 C123.79,94.052 123.79,98.313 121.17,100.93 C118.55,103.55 114.29,103.55 111.67,100.93 C109.05,98.313 109.05,94.052 111.67,91.432 C112.98,90.122 114.7,89.464 116.42,89.464 z M106.29,103.84 C106.93,103.84 107.56,104.08 108.04,104.56 C109.01,105.52 109.01,107.09 108.04,108.06 C107.08,109.02 105.51,109.02 104.54,108.06 C103.58,107.09 103.58,105.52 104.54,104.56 C105.03,104.08 105.66,103.84 106.29,103.84 z M96.012,109.9 C97.73,109.9 99.421,110.56 100.73,111.87 C103.35,114.49 103.35,118.72 100.73,121.34 C98.111,123.96 93.882,123.96 91.262,121.34 C88.642,118.72 88.642,114.49 91.262,111.87 C92.572,110.56 94.294,109.9 96.012,109.9 z M116.42,109.9 C118.14,109.9 119.86,110.56 121.17,111.87 C123.79,114.49 123.79,118.72 121.17,121.34 C118.55,123.96 114.29,123.96 111.67,121.34 C109.05,118.72 109.05,114.49 111.67,111.87 C112.98,110.56 114.7,109.9 116.42,109.9 z" fill-opacity="0" stroke="#A6A6A6" stroke-width="0.9"/>
    </g>
    <g id="rect3489">
      <path d="M103.9,8.82 L104.33,8.82 C105.8,8.82 106.99,10.011 106.99,11.49 L106.99,69.252 C106.99,70.731 105.8,71.922 104.33,71.922 L103.9,71.922 C102.42,71.922 101.23,70.731 101.23,69.252 L101.23,11.49 C101.23,10.011 102.42,8.82 103.9,8.82 z M106.17,140.7 L106.41,140.7 C107.94,140.7 109.17,141.93 109.17,143.46 L109.17,203.11 C109.17,204.64 107.94,205.87 106.41,205.87 L106.17,205.87 C104.65,205.87 103.42,204.64 103.42,203.11 L103.42,143.46 C103.42,141.93 104.65,140.7 106.17,140.7 z" fill="#A39E9B"/>
      <path d="M103.9,8.82 L104.33,8.82 C105.8,8.82 106.99,10.011 106.99,11.49 L106.99,69.252 C106.99,70.731 105.8,71.922 104.33,71.922 L103.9,71.922 C102.42,71.922 101.23,70.731 101.23,69.252 L101.23,11.49 C101.23,10.011 102.42,8.82 103.9,8.82 z M106.17,140.7 L106.41,140.7 C107.94,140.7 109.17,141.93 109.17,143.46 L109.17,203.11 C109.17,204.64 107.94,205.87 106.41,205.87 L106.17,205.87 C104.65,205.87 103.42,204.64 103.42,203.11 L103.42,143.46 C103.42,141.93 104.65,140.7 106.17,140.7 z" fill-opacity="0" stroke="#808080" stroke-width="0.968"/>
    </g>
    <g id="g3497">
      <g id="rect3493">
        <path d="M203.737,106.05 L203.737,106.476 C203.737,107.951 202.542,109.146 201.067,109.146 L143.305,109.146 C141.83,109.146 140.635,107.951 140.635,106.476 L140.635,106.05 C140.635,104.575 141.83,103.38 143.305,103.38 L201.067,103.38 C202.542,103.38 203.737,104.575 203.737,106.05 z" fill="#A8A39F"/>
        <path d="M203.737,106.05 L203.737,106.476 C203.737,107.951 202.542,109.146 201.067,109.146 L143.305,109.146 C141.83,109.146 140.635,107.951 140.635,106.476 L140.635,106.05 C140.635,104.575 141.83,103.38 143.305,103.38 L201.067,103.38 C202.542,103.38 203.737,104.575 203.737,106.05 z" fill-opacity="0" stroke="#A6A6A6" stroke-width="0.968"/>
      </g>
      <g id="rect3495">
        <path d="M71.86,108.317 L71.86,108.554 C71.86,110.077 70.626,111.311 69.103,111.311 L9.445,111.311 C7.922,111.311 6.688,110.077 6.688,108.554 L6.688,108.317 C6.688,106.794 7.922,105.56 9.445,105.56 L69.103,105.56 C70.626,105.56 71.86,106.794 71.86,108.317 z" fill="#A8A39F"/>
        <path d="M71.86,108.317 L71.86,108.554 C71.86,110.077 70.626,111.311 69.103,111.311 L9.445,111.311 C7.922,111.311 6.688,110.077 6.688,108.554 L6.688,108.317 C6.688,106.794 7.922,105.56 9.445,105.56 L69.103,105.56 C70.626,105.56 71.86,106.794 71.86,108.317 z" fill-opacity="0" stroke="#A6A6A6" stroke-width="0.982"/>
      </g>
    </g>
    <g id="g3404">
      <g id="g3396">
        <g id="rect2545">
          <path d="M16.741,104.697 L43.245,92.907 C45.744,91.795 48.651,92.912 49.763,95.411 L53.358,103.494 C54.471,105.994 53.353,108.9 50.854,110.012 L47.056,111.702 L24.35,121.802 C21.849,122.915 18.944,121.799 17.832,119.298 L14.236,111.216 C13.125,108.716 14.24,105.81 16.741,104.697 z" fill="#DECD87"/>
          <path d="M16.741,104.697 L43.245,92.907 C45.744,91.795 48.651,92.912 49.763,95.411 L53.358,103.494 C54.471,105.994 53.353,108.9 50.854,110.012 L47.056,111.702 L24.35,121.802 C21.849,122.915 18.944,121.799 17.832,119.298 L14.236,111.216 C13.125,108.716 14.24,105.81 16.741,104.697 z" fill-opacity="0" stroke="#8E8871" stroke-width="0.197"/>
        </g>
        <path d="M43.565,95.289 C34.705,99.601 25.413,102.99 16.706,107.626 C15.544,109.329 16.753,111.372 17.656,112.891 C18.717,115.214 19.252,118.078 21.409,119.671 C23.683,120.281 25.567,118.414 27.588,117.727 C35.375,114.17 43.399,111.113 50.934,107.024 C52.053,105.297 50.771,103.306 49.915,101.772 C48.851,99.445 48.324,96.547 46.116,94.995 C45.273,94.74 44.347,94.893 43.565,95.289 z" fill="#FFF6D5" id="rect2549" opacity="0.813"/>
      </g>
      <path d="M22.597,115.679 L20.028,109.902 L22.589,108.763 C23.105,108.533 23.519,108.412 23.834,108.398 C24.148,108.381 24.443,108.469 24.719,108.66 C24.998,108.851 25.206,109.106 25.347,109.424 C25.53,109.834 25.552,110.239 25.411,110.637 C25.269,111.036 24.94,111.397 24.421,111.721 C24.665,111.727 24.861,111.755 25.009,111.802 C25.323,111.908 25.648,112.071 25.985,112.289 L27.689,113.414 L26.727,113.842 L25.429,112.981 C25.051,112.733 24.748,112.55 24.522,112.429 C24.297,112.31 24.109,112.24 23.961,112.216 C23.816,112.194 23.677,112.194 23.546,112.217 C23.451,112.237 23.304,112.291 23.107,112.379 L22.22,112.774 L23.362,115.339 L22.597,115.679 M21.926,112.112 L23.569,111.381 C23.92,111.225 24.177,111.068 24.342,110.91 C24.506,110.748 24.606,110.567 24.637,110.363 C24.669,110.158 24.643,109.961 24.559,109.774 C24.438,109.501 24.239,109.321 23.961,109.234 C23.685,109.145 23.333,109.197 22.905,109.387 L21.076,110.201 L21.926,112.112 M28.434,113.083 L25.864,107.306 L30.041,105.448 L30.344,106.13 L26.932,107.648 L27.719,109.417 L30.914,107.996 L31.216,108.673 L28.021,110.095 L28.895,112.061 L32.441,110.483 L32.744,111.165 L28.434,113.083 M33.825,110.685 L31.255,104.908 L35.431,103.05 L35.735,103.732 L32.322,105.25 L33.11,107.019 L36.305,105.598 L36.606,106.275 L33.411,107.697 L34.286,109.663 L37.833,108.085 L38.136,108.767 L33.825,110.685 M39.169,108.308 L36.599,102.531 L37.363,102.191 L39.629,107.285 L42.474,106.02 L42.778,106.702 L39.169,108.308 M48.015,104.372 L47.305,104.688 L45.294,100.168 C45.196,100.407 45.044,100.671 44.839,100.957 C44.635,101.242 44.442,101.475 44.256,101.654 L43.951,100.969 C44.265,100.606 44.511,100.225 44.69,99.828 C44.869,99.431 44.964,99.08 44.977,98.775 L45.434,98.572 L48.015,104.372" fill="#333333" id="text3400"/>
    </g>
  </g>
</svg>
