<?xml version="1.0" encoding="UTF-8"?>
<!DOCTYPE svg PUBLIC "-//W3C//DTD SVG 1.1//EN" "http://www.w3.org/Graphics/SVG/1.1/DTD/svg11.dtd">
<svg version="1.1" xmlns="http://www.w3.org/2000/svg" xmlns:xlink="http://www.w3.org/1999/xlink" x="0" y="0" width="231" height="231" viewBox="0, 0, 231, 231">
  <defs>
    <radialGradient id="Gradient_1" gradientUnits="userSpaceOnUse" cx="302" cy="239.93" r="138" gradientTransform="matrix(2.267, 0, 0, 2.267, -569.107, -489.498)">
      <stop offset="0" stop-color="#FFFFFF"/>
      <stop offset="0.202" stop-color="#FFFFFF"/>
      <stop offset="0.327" stop-color="#EFF5FB"/>
      <stop offset="1" stop-color="#04487F"/>
    </radialGradient>
    <radialGradient id="Gradient_2" gradientUnits="userSpaceOnUse" cx="525.5" cy="467.19" r="138" gradientTransform="matrix(1.484, 0, 0, 1.484, -664.362, -577.823)">
      <stop offset="0" stop-color="#000000"/>
      <stop offset="0.478" stop-color="#000000"/>
      <stop offset="0.498" stop-color="#FFFFFF"/>
      <stop offset="0.508" stop-color="#FFFFFF"/>
      <stop offset="0.53" stop-color="#000000"/>
      <stop offset="1" stop-color="#000000"/>
    </radialGradient>
    <radialGradient id="Gradient_3" gradientUnits="userSpaceOnUse" cx="504.12" cy="468.58" r="2.625" gradientTransform="matrix(1.636, 0, 0, 1.636, -709.31, -654.493)">
      <stop offset="0" stop-color="#FFFFFF"/>
      <stop offset="1" stop-color="#000000"/>
    </radialGradient>
    <radialGradient id="Gradient_4" gradientUnits="userSpaceOnUse" cx="528" cy="368.17" r="113.53" gradientTransform="matrix(0.837, 0, 0, 0.22, -326.414, -55.1)">
      <stop offset="0" stop-color="#FFFFFF" stop-opacity="0.319"/>
      <stop offset="1" stop-color="#FFFFFF"/>
    </radialGradient>
    <radialGradient id="Gradient_5" gradientUnits="userSpaceOnUse" cx="527" cy="691.2" r="90.781" gradientTransform="matrix(0.837, 0, 0, 0.194, -325.577, 89.427)">
      <stop offset="0" stop-color="#FFFFFF" stop-opacity="0.319"/>
      <stop offset="1" stop-color="#FFFFFF"/>
    </radialGradient>
    <linearGradient id="Gradient_6" gradientUnits="userSpaceOnUse" x1="302" y1="365.96" x2="302" y2="84.525" gradientTransform="matrix(0.61, 0, 0, 0.503, -68.572, -58.121)">
      <stop offset="0" stop-color="#FFFFFF" stop-opacity="0"/>
      <stop offset="1" stop-color="#FFFFFF"/>
    </linearGradient>
  </defs>
  <g id="Layer_1" opacity="0.858">
    <path d="M215.1,115.497 C215.1,170.503 170.508,215.095 115.501,215.095 C60.495,215.095 15.903,170.503 15.903,115.497 C15.903,60.49 60.495,15.898 115.501,15.898 C170.508,15.898 215.1,60.49 215.1,115.497 z" fill="url(#Gradient_1)" id="path19411"/>
    <path d="M115.501,0.006 C51.741,0.006 -0,51.747 -0,115.506 C-0,179.258 51.741,231.007 115.501,231.007 C179.261,231.007 231.001,179.258 231.001,115.506 C231.001,51.747 179.261,0.006 115.501,0.006 z M115.501,15.908 C170.481,15.908 215.099,60.526 215.099,115.506 C215.099,170.478 170.481,215.105 115.501,215.105 C60.521,215.096 15.903,170.478 15.903,115.506 C15.903,60.526 60.521,15.908 115.501,15.908 z" fill="url(#Gradient_2)" id="path19413"/>
    <path d="M119.565,115.493 C119.565,117.746 117.738,119.573 115.485,119.573 C113.231,119.573 111.405,117.746 111.405,115.493 C111.405,113.24 113.231,111.413 115.485,111.413 C117.738,111.413 119.565,113.24 119.565,115.493 z" fill="url(#Gradient_3)" id="path19421"/>
    <path d="M115.501,0.843 C76.114,0.843 41.33,20.595 20.481,50.717 C44.41,25.659 78.139,10.049 115.501,10.049 C152.863,10.049 186.592,25.659 210.521,50.717 C189.672,20.595 154.888,0.843 115.501,0.843 z" fill="url(#Gradient_4)" id="path19423"/>
    <path d="M115.501,223.549 C145.95,223.549 173.209,209.865 191.48,188.322 C171.167,206.09 144.594,216.854 115.501,216.854 C86.408,216.854 59.835,206.09 39.522,188.322 C57.793,209.865 85.052,223.549 115.501,223.549 z" fill="url(#Gradient_5)" id="path19425"/>
    <path d="M113.434,18.444 L113.434,38.288 C114.815,38.247 116.187,38.272 117.568,38.288 L117.568,18.444 L113.434,18.444 z M67.744,30.998 L66.196,31.886 L74.54,46.348 C75.051,46.047 75.57,45.754 76.089,45.461 L67.744,30.998 z M163.258,30.998 L154.913,45.461 C155.432,45.754 155.951,46.047 156.462,46.348 L164.806,31.886 L163.258,30.998 z M31.88,66.201 L30.993,67.741 L45.456,76.085 C45.749,75.567 46.042,75.056 46.351,74.545 L31.88,66.201 z M199.122,66.201 L184.651,74.545 C184.96,75.056 185.253,75.567 185.546,76.085 L200.009,67.741 L199.122,66.201 z M18.439,113.439 L18.439,117.565 L38.291,117.565 C38.25,116.193 38.266,114.812 38.291,113.439 L18.439,113.439 z M192.711,113.439 C192.752,114.812 192.736,116.193 192.711,117.565 L212.563,117.565 L212.563,113.439 L192.711,113.439 z M45.456,154.919 L30.993,163.263 L31.88,164.803 L46.351,156.459 C46.042,155.948 45.749,155.438 45.456,154.919 z M185.546,154.919 C185.253,155.438 184.96,155.948 184.651,156.459 L199.122,164.803 L200.009,163.263 L185.546,154.919 z M74.54,184.656 L66.196,199.119 L67.744,200.006 L76.089,185.543 C75.57,185.25 75.051,184.957 74.54,184.656 z M156.462,184.656 C155.951,184.957 155.432,185.25 154.913,185.543 L163.258,200.006 L164.806,199.119 L156.462,184.656 z M113.434,192.707 L113.434,212.56 L117.568,212.56 L117.568,192.707 C116.187,192.758 114.815,192.733 113.434,192.707 z" fill="#000000" id="path19427"/>
    <path d="M199.619,87.036 C199.619,125.402 161.96,156.504 115.505,156.504 C69.05,156.504 31.39,125.402 31.39,87.036 C31.39,48.67 69.05,17.569 115.505,17.569 C161.96,17.569 199.619,48.67 199.619,87.036 z" fill="url(#Gradient_6)" id="path19429"/>
  </g>
</svg>
