<?xml version="1.0" encoding="UTF-8"?>
<!DOCTYPE svg PUBLIC "-//W3C//DTD SVG 1.1//EN" "http://www.w3.org/Graphics/SVG/1.1/DTD/svg11.dtd">
<svg version="1.1" xmlns="http://www.w3.org/2000/svg" xmlns:xlink="http://www.w3.org/1999/xlink" x="0" y="0" width="40.505" height="48.023" viewBox="0, 0, 40.505, 48.023">
  <defs>
    <linearGradient id="Gradient_1" gradientUnits="userSpaceOnUse" x1="-48.639" y1="995.68" x2="-44.51" y2="1015" gradientTransform="matrix(1.314, 0, 0, 1.314, 70.583, -1305.548)">
      <stop offset="0" stop-color="#FFFFFF"/>
      <stop offset="1" stop-color="#FFFFFF" stop-opacity="0"/>
    </linearGradient>
    <linearGradient id="Gradient_2" gradientUnits="userSpaceOnUse" x1="35.718" y1="1020.466" x2="45.312" y2="1020.466" gradientTransform="matrix(0.791, 0, 0, 0.791, -2.15, -783.18)">
      <stop offset="0" stop-color="#FFFFFF"/>
      <stop offset="1" stop-color="#000000"/>
    </linearGradient>
  </defs>
  <g id="Capa_1">
    <g id="path2842">
      <path d="M23.153,0.436 C22.799,0.406 22.297,0.61 21.592,1.093 C18.773,3.022 8.531,14.195 8.531,14.195 C8.442,14.195 8.371,14.227 8.285,14.236 L0.39,14.236 L0.39,33.869 L8.532,33.869 C8.532,33.869 18.592,45.083 21.593,47.013 C24.594,48.942 23.975,45.944 23.975,44.63 L23.975,3.434 C23.975,2.449 24.217,0.523 23.154,0.436 L23.154,0.436 z" fill="#FFFFFF"/>
      <path d="M23.153,0.436 C22.799,0.406 22.297,0.61 21.592,1.093 C18.773,3.022 8.531,14.195 8.531,14.195 C8.442,14.195 8.371,14.227 8.285,14.236 L0.39,14.236 L0.39,33.869 L8.532,33.869 C8.532,33.869 18.592,45.083 21.593,47.013 C24.594,48.942 23.975,45.944 23.975,44.63 L23.975,3.434 C23.975,2.449 24.217,0.523 23.154,0.436 L23.154,0.436 z" fill-opacity="0" stroke="#3B4346" stroke-width="0.791"/>
    </g>
    <path d="M22.184,2.713 C21.867,2.687 21.417,2.87 20.786,3.302 C18.26,5.031 8.814,15.445 8.814,15.445 C8.734,15.445 8.671,15.474 8.594,15.482 L1.491,15.482 L1.491,28.547 C5.537,27.93 9.838,26.98 14.261,25.713 C17.202,24.87 20.121,23.793 22.786,22.781 L22.921,5.4 C22.921,4.517 23.138,2.792 22.185,2.713 L22.185,2.713 z" fill="url(#Gradient_1)" id="rect2830"/>
    <g id="path4005">
      <path d="M28.083,11.515 L26.097,13.373 C26.097,13.373 30.767,16.66 30.767,23.827 C30.767,30.993 26.121,34.059 26.121,34.059 L28.058,36.134 C28.058,36.134 33.684,31.586 33.684,23.828 C33.684,16.068 28.083,11.516 28.083,11.516 z" fill="url(#Gradient_2)"/>
      <path d="M28.083,11.515 L26.097,13.373 C26.097,13.373 30.767,16.66 30.767,23.827 C30.767,30.993 26.121,34.059 26.121,34.059 L28.058,36.134 C28.058,36.134 33.684,31.586 33.684,23.828 C33.684,16.068 28.083,11.516 28.083,11.516 z" fill-opacity="0" stroke="#0070A3" stroke-width="0.395" stroke-linejoin="round"/>
    </g>
    <g id="path4007">
      <path d="M33.913,6.865 L32.004,8.51 C32.004,8.51 33.271,9.702 34.574,12.242 C35.877,14.782 37.194,18.643 37.194,23.906 C37.194,29.17 35.874,32.923 34.574,35.373 C33.274,37.823 32.029,38.907 32.029,38.907 L33.805,40.577 C33.805,40.577 35.95,38.639 37.342,36.016 C38.734,33.392 40.11,29.394 40.11,23.907 C40.11,18.419 38.73,14.33 37.342,11.624 C35.954,8.918 33.913,6.845 33.913,6.845 z" fill="#FFFFFF"/>
      <g>
        <path d="M33.913,6.865 L32.004,8.51 C32.004,8.51 33.271,9.702 34.574,12.242 C35.877,14.782 37.194,18.643 37.194,23.906 C37.194,29.17 35.874,32.923 34.574,35.373 C33.274,37.823 32.029,38.907 32.029,38.907 L33.805,40.577 C33.805,40.577 35.95,38.639 37.342,36.016 C38.734,33.392 40.11,29.394 40.11,23.907 C40.11,18.419 38.73,14.33 37.342,11.624 C35.954,8.918 33.913,6.845 33.913,6.845 z" fill="#FFFFFF"/>
        <path d="M33.913,6.865 L32.004,8.51 C32.004,8.51 33.271,9.702 34.574,12.242 C35.877,14.782 37.194,18.643 37.194,23.906 C37.194,29.17 35.874,32.923 34.574,35.373 C33.274,37.823 32.029,38.907 32.029,38.907 L33.805,40.577 C33.805,40.577 35.95,38.639 37.342,36.016 C38.734,33.392 40.11,29.394 40.11,23.907 C40.11,18.419 38.73,14.33 37.342,11.624 C35.954,8.918 33.913,6.845 33.913,6.845 z" fill-opacity="0" stroke="#343C40" stroke-width="0.791" stroke-linejoin="round"/>
      </g>
    </g>
    <g id="path3943">
      <path d="M28.083,11.515 L26.097,13.373 C26.097,13.373 30.767,16.66 30.767,23.827 C30.767,30.993 26.121,34.059 26.121,34.059 L28.058,36.134 C28.058,36.134 33.684,31.586 33.684,23.828 C33.684,16.068 28.083,11.516 28.083,11.516 z" fill="#FFFFFF"/>
      <g>
        <path d="M28.083,11.515 L26.097,13.373 C26.097,13.373 30.767,16.66 30.767,23.827 C30.767,30.993 26.121,34.059 26.121,34.059 L28.058,36.134 C28.058,36.134 33.684,31.586 33.684,23.828 C33.684,16.068 28.083,11.516 28.083,11.516 z" fill="#FFFFFF"/>
        <path d="M28.083,11.515 L26.097,13.373 C26.097,13.373 30.767,16.66 30.767,23.827 C30.767,30.993 26.121,34.059 26.121,34.059 L28.058,36.134 C28.058,36.134 33.684,31.586 33.684,23.828 C33.684,16.068 28.083,11.516 28.083,11.516 z" fill-opacity="0" stroke="#343C40" stroke-width="0.791" stroke-linejoin="round"/>
      </g>
    </g>
  </g>
</svg>
