<?xml version="1.0" encoding="UTF-8"?>
<!DOCTYPE svg PUBLIC "-//W3C//DTD SVG 1.1//EN" "http://www.w3.org/Graphics/SVG/1.1/DTD/svg11.dtd">
<svg version="1.1" xmlns="http://www.w3.org/2000/svg" xmlns:xlink="http://www.w3.org/1999/xlink" x="0" y="0" width="156.813" height="83.844" viewBox="0, 0, 156.813, 83.844">
  <defs>
    <linearGradient id="Gradient_1" gradientUnits="userSpaceOnUse" x1="117.45" y1="372.56" x2="174.52" y2="403.84" gradientTransform="matrix(-0.956, 0, 0, 0.956, 149.195, -310.13)">
      <stop offset="0" stop-color="#FFFFFF"/>
      <stop offset="1" stop-color="#C2C2C2"/>
    </linearGradient>
  </defs>
  <g id="Calque_1">
    <g id="path3841">
      <path d="M114.875,0.5 C137.755,0.5 156.313,19.026 156.313,41.906 C156.313,64.786 137.756,83.344 114.875,83.344 L41.906,83.344 C19.026,83.344 0.5,64.787 0.5,41.906 C0.5,19.026 19.026,0.5 41.906,0.5 z" fill="#C41C22"/>
      <path d="M114.875,0.5 C137.755,0.5 156.313,19.026 156.313,41.906 C156.313,64.786 137.756,83.344 114.875,83.344 L41.906,83.344 C19.026,83.344 0.5,64.787 0.5,41.906 C0.5,19.026 19.026,0.5 41.906,0.5 z" fill-opacity="0" stroke="#DADADA" stroke-width="1" stroke-opacity="0.5" stroke-linecap="round" stroke-linejoin="round"/>
    </g>
    <path d="M3.065,42.131 C3.065,64.016 20.807,81.757 42.691,81.757 C64.576,81.757 82.317,64.016 82.317,42.131 C82.317,20.247 64.576,2.505 42.691,2.505 C20.807,2.505 3.065,20.247 3.065,42.131 z" fill-opacity="0" stroke="#666666" stroke-width="1" id="path3843" opacity="0.57"/>
    <path d="M2.305,41.931 C2.305,63.816 20.047,81.557 41.931,81.557 C63.816,81.557 81.557,63.816 81.557,41.931 C81.557,20.047 63.816,2.305 41.931,2.305 C20.047,2.305 2.305,20.047 2.305,41.931 z" fill="url(#Gradient_1)" id="path3845"/>
  </g>
</svg>
