<?xml version="1.0" encoding="UTF-8"?>
<!DOCTYPE svg PUBLIC "-//W3C//DTD SVG 1.1//EN" "http://www.w3.org/Graphics/SVG/1.1/DTD/svg11.dtd">
<svg version="1.1" xmlns="http://www.w3.org/2000/svg" xmlns:xlink="http://www.w3.org/1999/xlink" x="0" y="0" width="34.326" height="48.023" viewBox="0, 0, 34.326, 48.023">
  <defs>
    <linearGradient id="Gradient_1" gradientUnits="userSpaceOnUse" x1="-48.639" y1="995.68" x2="-44.51" y2="1015" gradientTransform="matrix(1.314, 0, 0, 1.314, 70.583, -1305.548)">
      <stop offset="0" stop-color="#FFFFFF"/>
      <stop offset="1" stop-color="#FFFFFF" stop-opacity="0"/>
    </linearGradient>
  </defs>
  <g id="Capa_1">
    <g id="path2842">
      <path d="M23.153,0.436 C22.799,0.406 22.297,0.61 21.592,1.093 C18.773,3.022 8.531,14.195 8.531,14.195 C8.442,14.195 8.371,14.227 8.285,14.236 L0.39,14.236 L0.39,33.869 L8.532,33.869 C8.532,33.869 18.592,45.083 21.593,47.013 C24.594,48.942 23.975,45.944 23.975,44.63 L23.975,3.434 C23.975,2.449 24.217,0.523 23.154,0.436 L23.154,0.436 z" fill="#FFFFFF"/>
      <path d="M23.153,0.436 C22.799,0.406 22.297,0.61 21.592,1.093 C18.773,3.022 8.531,14.195 8.531,14.195 C8.442,14.195 8.371,14.227 8.285,14.236 L0.39,14.236 L0.39,33.869 L8.532,33.869 C8.532,33.869 18.592,45.083 21.593,47.013 C24.594,48.942 23.975,45.944 23.975,44.63 L23.975,3.434 C23.975,2.449 24.217,0.523 23.154,0.436 L23.154,0.436 z" fill-opacity="0" stroke="#2E373B" stroke-width="0.791"/>
    </g>
    <path d="M22.184,2.713 C21.867,2.687 21.417,2.87 20.786,3.302 C18.26,5.031 8.814,15.445 8.814,15.445 C8.734,15.445 8.671,15.474 8.594,15.482 L1.491,15.482 L1.491,28.547 C5.537,27.93 9.838,26.98 14.261,25.713 C17.202,24.87 20.121,23.793 22.786,22.781 L22.921,5.4 C22.921,4.517 23.138,2.792 22.185,2.713 L22.185,2.713 z" fill="url(#Gradient_1)" id="rect2830"/>
    <path d="M32.174,35.606 C32.174,41.316 27.803,45.95 22.417,45.95 C17.03,45.95 12.659,41.316 12.659,35.606 C12.659,29.896 17.03,25.263 22.417,25.263 C27.803,25.263 32.174,29.896 32.174,35.606 z M15.196,28.776 L29.637,42.436" fill-opacity="0" stroke="#DA1111" stroke-width="3" stroke-opacity="0.971"/>
  </g>
</svg>
