<?xml version="1.0" encoding="UTF-8"?>
<!DOCTYPE svg PUBLIC "-//W3C//DTD SVG 1.1//EN" "http://www.w3.org/Graphics/SVG/1.1/DTD/svg11.dtd">
<svg version="1.1" xmlns="http://www.w3.org/2000/svg" xmlns:xlink="http://www.w3.org/1999/xlink" x="0" y="0" width="157.101" height="85.958" viewBox="0, 0, 157.101, 85.958">
  <defs>
    <linearGradient id="Gradient_1" gradientUnits="userSpaceOnUse" x1="117.45" y1="372.56" x2="174.52" y2="403.84" gradientTransform="matrix(0.956, 0, 0, -0.956, 7.608, 394.531)">
      <stop offset="0" stop-color="#FFFFFF"/>
      <stop offset="1" stop-color="#C2C2C2"/>
    </linearGradient>
  </defs>
  <g id="Calque_1">
    <g id="path2996">
      <path d="M42.082,84.401 C19.202,84.401 0.644,65.875 0.644,42.995 C0.644,20.115 19.201,1.557 42.082,1.557 L115.051,1.557 C137.931,1.557 156.457,20.114 156.457,42.995 C156.457,65.875 137.931,84.401 115.051,84.401 z" fill="#1FAE30"/>
      <path d="M42.082,84.401 C19.202,84.401 0.644,65.875 0.644,42.995 C0.644,20.115 19.201,1.557 42.082,1.557 L115.051,1.557 C137.931,1.557 156.457,20.114 156.457,42.995 C156.457,65.875 137.931,84.401 115.051,84.401 z" fill-opacity="0" stroke="#1ED841" stroke-width="1" stroke-linecap="round" stroke-linejoin="round"/>
    </g>
    <g id="path3789" opacity="0.57">
      <path d="M153.748,42.979 C153.748,21.094 136.006,3.353 114.122,3.353 C92.237,3.353 74.496,21.094 74.496,42.979 C74.496,64.864 92.237,82.605 114.122,82.605 C136.006,82.605 153.748,64.864 153.748,42.979 z" fill="#000000"/>
      <path d="M153.748,42.979 C153.748,21.094 136.006,3.353 114.122,3.353 C92.237,3.353 74.496,21.094 74.496,42.979 C74.496,64.864 92.237,82.605 114.122,82.605 C136.006,82.605 153.748,64.864 153.748,42.979 z" fill-opacity="0" stroke="#666666" stroke-width="1"/>
    </g>
    <path d="M154.498,42.469 C154.498,20.584 136.756,2.843 114.872,2.843 C92.987,2.843 75.246,20.584 75.246,42.469 C75.246,64.354 92.987,82.095 114.872,82.095 C136.756,82.095 154.498,64.354 154.498,42.469 z" fill="url(#Gradient_1)" id="path2998"/>
  </g>
</svg>
